<?xml version="1.0" standalone="yes"?>

<svg version="1.1" viewBox="0.0 0.0 246.03412073490813 230.2729658792651" fill="none" stroke="none" stroke-linecap="square" stroke-miterlimit="10" xmlns="http://www.w3.org/2000/svg" xmlns:xlink="http://www.w3.org/1999/xlink"><clipPath id="p.0"><path d="m0 0l246.03412 0l0 230.27296l-246.03412 0l0 -230.27296z" clip-rule="nonzero"></path></clipPath><g clip-path="url(#p.0)"><path fill="#000000" fill-opacity="0.0" d="m0 0l246.03412 0l0 230.27296l-246.03412 0z" fill-rule="nonzero"></path><path fill="#000000" fill-opacity="0.0" d="m71.23865 44.23929c-7.138298 -1.8880424 -14.783295 -5.1217575 -21.92228 -3.2362823c-7.1940613 1.9000168 -12.286579 12.202938 -10.728107 19.419827c1.359581 6.2958794 17.54935 9.946934 19.123734 3.7004356c0.5236473 -2.07761 -3.4501686 -3.0010872 -5.597084 -3.238411c-7.5783615 -0.8377228 -7.689007 14.26297 -6.529217 21.7342c0.59685135 3.8448563 2.7057037 8.835564 6.529217 9.710976c5.6076546 1.283905 17.415775 -6.431572 13.526646 -10.637154c-6.1803856 -6.6832733 -23.672955 -0.41082764 -26.121162 8.324913c-1.6982651 6.059784 14.605545 17.3377 15.393059 11.097046c1.410984 -11.181335 -15.780598 -26.41169 -26.121166 -21.732063c-13.316873 6.0265503 -29.619541 24.835838 -22.388344 37.45359c4.0530314 7.072151 13.999294 13.211166 21.922277 11.097046c5.3463383 -1.4265823 9.205507 -7.559532 10.262041 -12.947266c0.7470207 -3.8093948 2.0674248 -9.758446 -1.4003448 -11.559067c-7.3619194 -3.8226318 -21.815262 -0.604187 -23.78869 7.3987427c-2.4822187 10.066238 3.9656982 22.195389 12.128452 28.668793c8.866449 7.0314484 30.064234 11.46347 34.050728 0.92404175c1.8632355 -4.925995 2.352642 -12.001923 -1.4003448 -15.721527c-6.4954834 -6.4377136 -21.096298 -5.1205215 -27.519365 1.3881912c-14.440655 14.633217 -0.9756775 56.409813 19.5898 58.26162c9.89362 0.89086914 23.699318 -13.915741 19.125885 -22.658234c-2.5308304 -4.837906 -9.049114 -6.902664 -14.46093 -7.8607635c-2.7549553 -0.4877472 -4.0208015 -2.2923431 -5.597084 0c-10.2270775 14.872879 19.417923 44.806473 36.849274 39.76796c10.453316 -3.021515 9.603897 -29.644638 -0.93213654 -32.369232c-2.894394 -0.7484741 -9.030403 -1.5725098 -8.863838 1.3881989c0.7412338 13.175949 28.452393 18.115173 38.715683 9.710983c6.2004166 -5.0772705 4.8912125 -7.2902374 4.664955 -15.259506c-0.6055908 -21.32988 -39.353508 -49.30716 -54.574814 -34.219437c-15.577152 15.44046 23.014923 56.113907 43.84671 49.014786c13.767853 -4.6918488 20.429016 -27.327866 14.926994 -40.689865c-5.5003967 -13.3580475 -27.321877 -16.609238 -41.51423 -13.411423c-3.0665894 0.69096375 -4.406067 8.332085 -1.4003448 9.248962c10.119675 3.0869293 10.402199 2.7742615 20.990143 2.7742615c8.5855255 0 20.195602 -6.322975 20.99015 -14.797485c2.0000992 -21.332817 -68.20729 -21.162628 -64.83685 0c2.3522224 14.769348 35.59105 11.950821 45.247047 0.4641571c14.682533 -17.466164 10.382179 -56.7055 -9.795975 -67.51271c-17.584785 -9.418228 -44.467987 -0.42401123 -58.305485 13.873436c-7.284685 7.526825 0.61045074 25.438416 10.262043 29.592834c14.849133 6.3916397 34.69616 6.056053 48.509506 -2.3122406c15.79657 -9.569756 16.407738 -52.07528 -1.8642578 -55.025333c-6.0030136 -0.96920395 -9.282242 -4.4043674 -12.128456 0.92404175c-12.219826 22.876808 47.13536 39.383144 71.83428 30.98103c10.444031 -3.552868 21.82492 -17.579735 17.723389 -27.742615c-9.908936 -24.5527 -59.507797 -23.684956 -79.761696 -6.474697c-11.489868 9.763241 -13.573166 12.312222 -12.594513 27.282722c1.675415 25.62891 46.935684 39.06487 71.366066 30.516872c12.327118 -4.3131638 20.33992 -21.982132 17.72554 -34.679333c-4.8432465 -23.521982 -55.822968 7.91803 -66.235054 29.59283c-5.0297394 10.470406 -4.6579742 13.492912 1.8642654 23.12027c9.747475 14.388062 35.843292 10.633293 52.24234 4.6244736c9.728378 -3.564598 12.466949 -21.319077 6.9974213 -30.054848c-6.654022 -10.627632 -28.641068 -10.935196 -37.781403 -2.3122406c-7.6626205 7.228882 -6.5856705 9.959534 -5.1310196 20.346c1.9654694 14.033783 28.752357 33.407516 36.84928 21.73207c7.226303 -10.420074 -28.218918 -14.376762 -37.78356 -6.010544c-6.037781 5.2812576 -3.0031586 20.012497 4.1988907 23.58229c4.229851 2.0965729 12.451401 -1.7887726 12.594513 -6.474701c0.33998108 -11.131119 -28.76152 -12.831825 -33.584656 -2.7742615c-4.310562 8.988693 -4.496773 11.511826 0.9321289 19.883972c8.428162 12.997452 43.264343 11.847061 46.64525 -3.2362823c3.3513641 -14.951523 -37.12065 2.1808624 -43.38064 16.183548c-4.1515427 9.286407 -2.1456146 11.907928 4.1988907 19.883987c6.726654 8.456497 25.97583 3.7508698 32.18431 -5.086502c4.6017 -6.5502014 3.0462646 -20.095154 -4.1967316 -23.58229c-5.0532074 -2.432846 -7.686615 -5.274399 -11.196327 -0.9261627c-4.662956 5.777008 -3.6354141 8.335785 0 14.79747c5.7018356 10.134598 22.142586 12.622467 33.584663 10.173004c11.3207855 -2.4234924 12.969284 -1.4286804 20.990143 -9.710983c4.4147034 -4.5585785 2.1409302 -17.816376 -4.1967316 -18.495789c-8.751221 -0.9381256 -17.214676 12.733078 -15.393066 21.27005c1.6101532 7.545944 19.462341 5.7725677 23.322632 -0.92404175c11.947525 -20.725906 -39.469757 -70.45941 -51.776276 -49.940964c-9.445625 15.748535 42.404297 23.499832 54.574814 9.710983c7.378174 -8.359268 5.555252 -24.585236 -1.4003448 -33.293266c-1.5830078 -1.9818344 -6.712082 2.179802 -6.063156 4.624481c0.87590027 3.2996826 7.8366394 6.0414886 9.795975 3.2362823c3.3611298 -4.8121643 3.8060608 -6.030815 1.8664093 -11.559067c-3.9958801 -11.3888855 -3.4254456 -12.986252 -13.060577 -20.346008c-5.872177 -4.4854355 -21.074158 -3.602066 -21.924423 3.6983109c-0.5809326 4.987831 12.154022 9.0943985 14.460922 4.6244736c5.7449493 -11.131538 -16.21988 -44.534523 -19.125885 -32.367092c-2.5291443 10.589516 15.346237 21.962826 26.12117 19.881855c7.723343 -1.4916229 21.304459 -14.646149 14.4609375 -18.495789c-11.294586 -6.3534584 -31.873032 -0.58940125 -37.31534 11.0991745c-7.42865 15.954666 -5.7649384 18.371979 -0.46821594 35.141357c12.937958 40.961464 22.149094 4.509163 17.72554 11.097046c-6.486267 9.659798 -23.176392 11.246986 -27.053299 22.19622c-8.113998 22.915604 -8.476852 25.301682 -1.4003448 48.552765c2.9523315 9.700455 27.486313 2.9200287 29.853989 -6.936722c3.293457 -13.710922 -18.01619 -26.5952 -32.186478 -27.744736c-12.517532 -1.0154724 -15.449158 -2.4030151 -24.254753 6.4746857c-7.608223 7.6705475 -7.127594 11.217331 -3.2646103 21.27005c2.6613693 6.9257355 17.745651 12.908661 21.456223 6.474701c2.1121674 -3.6624146 2.1980896 -6.067215 -1.3982086 -8.322784c-11.824234 -7.4160767 -34.436546 -1.8261108 -40.582092 10.635025c-4.27404 8.666336 -3.1312408 29.366592 6.5292206 28.206757c5.7637177 -0.6919861 9.790909 -11.771484 6.0653 -16.185669c-7.245117 -8.584183 -21.07325 -17.790009 -31.25219 -12.947266c-4.1604385 1.9793854 8.719788 10.924545 11.66024 7.3987427c12.832642 -15.387238 16.086006 -15.405167 19.125885 -35.141357c2.1252518 -13.79808 -15.628944 -35.12085 -28.92186 -30.518997c-8.138664 2.817505 -11.597031 23.241135 -3.2646103 25.432495c8.609047 2.2641296 22.486366 -10.320892 19.125885 -18.49791c-3.2571945 -7.925682 -5.163994 -8.518097 -13.528801 -10.635025c-8.098747 -2.049591 -12.853912 16.886993 -7.929558 23.58229c4.799309 6.525284 9.406029 8.62912 15.859123 3.7004395c13.673828 -10.44368 14.939621 -41.324387 0.9342804 -51.327034c-12.05085 -8.6067505 -40.623535 -6.512146 -43.846706 7.860756c-0.9968567 4.4452286 3.8166542 4.0613556 8.39563 3.6983109c19.42326 -1.5399933 22.607891 4.1220627 38.249615 -7.396614c12.38134 -9.117699 11.278969 -13.390762 10.728111 -28.670914c-0.51597595 -14.312439 -31.23114 -14.434525 -42.914574 -6.0105476c-11.1726265 8.0556755 -13.957779 12.236797 -10.2598915 25.432507c2.8284035 10.093002 9.023602 7.98246 19.589802 7.8607635c10.224304 -0.117767334 30.984001 -16.574509 21.92228 -21.27005c-16.66829 -8.637054 -35.878857 20.452354 -41.046017 38.37977c-2.2534866 7.818451 -0.95238495 9.391968 4.196739 15.721527c2.383484 2.9298859 4.1080284 0.3731842 7.463497 -1.3881989c1.9814987 -1.0401459 -3.9736595 -5.231415 -5.597084 -3.6983032c-3.9529839 3.7330627 -6.308998 5.402359 -3.7306747 10.173004c2.6179848 4.8440247 5.451126 4.457901 10.728104 2.7742615c14.653374 -4.675247 39.955574 -19.658531 32.18432 -32.831253c-8.974716 -15.212654 -42.642918 -4.19812 -52.242332 10.635025c-8.497616 13.1306305 -8.2827835 20.904037 3.7306747 30.981033c19.704811 16.528564 59.1793 17.169662 77.43137 -0.92404175c9.917915 -9.831879 -10.717186 -34.54103 -24.720825 -33.755295c-15.056488 0.8448105 -18.49279 2.565445 -25.655098 15.721527c-6.4311523 11.813034 24.854607 18.794739 37.781403 14.79747c13.670883 -4.227356 14.361687 -5.6808624 22.856552 -17.10971c2.9317474 -3.944313 1.6708679 -9.506248 -3.2646027 -9.248962c-8.853828 0.46155548 -11.457649 1.9034805 -14.46093 10.173004c-6.1748657 17.002441 -16.017326 24.129608 -2.3324738 36.06752c15.510719 13.530716 44.565132 -11.2131195 54.574806 -29.130798c1.5861511 -2.839264 2.7444 -5.8384705 -0.46606445 -6.474701c-9.464615 -1.8756332 -7.037613 20.905884 -1.3981934 28.670914c7.802124 10.742935 47.30269 -12.402985 35.44893 -18.49791c-8.730438 -4.488983 -22.258286 13.5855255 -18.65767 22.658234c3.32135 8.36908 9.035965 9.346497 17.25946 5.548523c16.702744 -7.714035 29.302948 -31.321991 24.720825 -49.014786c-1.383194 -5.340851 -13.30455 -12.673668 -14.92485 -7.398735c-1.2584229 4.0968704 9.2332 10.290672 11.194183 6.4746933c5.536667 -10.774162 2.9676514 -28.632668 -6.9974365 -35.605507c-5.3067627 -3.7132797 -2.1720123 21.643028 3.7328186 18.959938c10.099274 -4.5889893 -13.401871 -29.82962 -22.856552 -24.04644c-6.672348 4.0813065 -6.293457 6.566559 -6.063156 14.3354645c0.19511414 6.581749 16.557083 -0.6900711 18.65767 -6.936722c3.3394775 -9.930794 4.3116913 -12.671814 -2.3324738 -20.808025c-7.5489044 -9.244133 -26.61612 -9.824974 -35.917145 -2.3122406c-5.472122 4.4200172 19.490509 4.063381 20.990143 -2.7742615c2.0491028 -9.342949 -24.406235 -9.373749 -28.919708 -0.92404175c-2.6683502 4.995426 14.198349 1.7958984 16.79126 -3.2384148c3.6058655 -7.0009995 3.3762665 -8.608898 0 -15.721523c-2.9729004 -6.2628784 -15.4809265 -8.949528 -20.521927 -4.160328c-2.0231934 1.9221344 4.463318 9.705524 4.662796 6.9345894c0.51867676 -7.204233 -7.956131 -20.689655 -13.992706 -16.645569c-14.280716 9.567081 -1.2494965 38.617935 11.660233 49.93884c17.814972 15.622437 21.203094 10.71759 42.91458 20.346c4.9150085 2.1796646 14.643112 0.1332779 10.262039 3.2362823c-5.5161133 3.9069138 -7.065445 -2.958702 -13.526657 -0.92404175c-14.017609 4.4142 -17.886688 1.3283539 -26.12117 13.4092865c-10.991119 16.125244 -15.820099 19.719177 -8.863831 37.917747c4.670517 12.218735 13.197449 10.279388 25.65509 6.010544c10.701431 -3.6670532 11.055222 -7.7838593 12.128464 -18.95781c0.9926758 -10.3353195 -17.010498 -28.260353 -23.788696 -20.346008c-8.350281 9.749931 -9.349396 12.732712 -5.599228 24.97049c3.7881012 12.361572 24.704926 17.629395 36.85141 12.94725c5.703781 -2.198639 -11.39473 -11.913696 -16.327332 -8.322784c-11.278229 8.2105255 -14.022079 8.597137 -16.79126 22.194092c-2.215683 10.879181 11.520706 32.953568 20.524078 26.356552c3.5583801 -2.607315 0.607666 -5.522873 -2.7985382 -8.322784c-10.174683 -8.363617 -32.35788 -11.390411 -39.649963 -0.46202087c-6.4963226 9.735794 -4.5562744 14.395813 3.2667542 23.12027c6.382782 7.1182404 10.240158 5.476654 19.123734 1.8502197c8.8688965 -3.620453 -1.0685577 -22.876831 -9.795975 -26.82071c-7.8628845 -3.5531921 -9.805038 -3.410263 -17.257324 0.926178c-4.7006226 2.73526 -4.0483704 13.988358 0.9321289 16.183548c3.552185 1.5656433 2.823883 -8.912674 0 -11.561203c-4.6072235 -4.321121 -19.143677 -2.568512 -18.65767 3.7004395c0.62423706 8.051834 1.5277252 8.4231415 6.5292206 14.797485c2.3307648 2.9705353 11.455536 -3.3566132 9.32991 -6.474701c-6.4897614 -9.519852 -28.087593 -13.722595 -34.5168 -4.1624603c-7.2464676 10.775391 -3.4217682 13.28157 -0.4682083 25.896652c1.3956375 5.961014 13.459961 -5.926773 13.994858 -12.023209c0.56604004 -6.4513245 -14.266449 -18.40187 -15.393059 -12.023224c-1.9339981 10.949951 -3.422989 16.147339 6.5292206 21.27005c18.70308 9.62706 22.111923 10.659317 41.982437 3.7004242c16.566742 -5.8018646 46.35898 -33.184006 31.252182 -42.078064c-7.8463287 -4.6194916 -17.001205 18.396027 -10.730255 24.968353c13.602875 14.256561 51.014206 -39.249527 33.58467 -48.552765c-8.41507 -4.4916534 -15.763947 18.306137 -10.728104 26.358673c6.271515 10.028442 27.1185 -2.1170044 33.584656 -12.023224c3.0619812 -4.6909637 -17.485703 -12.124725 -15.393051 -6.936722c2.0727997 5.1388397 13.491379 8.467636 16.327332 3.7004395c4.622406 -7.770157 -1.4160767 -20.979813 -9.32991 -25.432495c-4.796051 -2.6984863 -8.8815 10.560486 -6.063141 15.259491c2.6027985 4.3395996 6.6124115 6.716736 9.793823 2.7742615c7.744873 -9.597595 7.2958527 -11.295166 6.9974365 -23.582275c-0.16403198 -6.753769 -7.504608 -22.00203 -11.660248 -16.647705c-2.4344177 3.1366196 -2.6426392 4.2838593 -0.9342804 7.8607635c1.1159058 2.3364182 3.2402802 2.706459 5.131027 0.92617035c9.162155 -8.626862 0.51000977 -35.6055 -12.126312 -35.6055c-3.7444763 0 4.674118 7.8092804 8.39563 7.398735c4.649414 -0.5129013 -0.7778168 -9.816223 -3.7328186 -13.411415c-1.4859161 -1.8078232 -8.047287 -3.0098114 -6.995285 -0.92404175c2.0870667 4.1378937 10.734238 -2.521019 12.126312 -6.936714c2.0427704 -6.479805 -6.3755035 -14.24828 -13.060593 -15.721527c-4.0839844 -0.9000282 -6.3693085 5.3923874 -9.327759 8.324913c-12.148087 12.041664 -13.576523 10.545921 -25.655106 22.656113c-28.77092 28.84623 -30.42871 27.498291 -55.97515 59.187798c-18.25824 22.648727 -12.55616 26.719803 -31.25219 49.014786c-3.441948 4.1045227 1.869751 -6.077118 -0.9321289 -10.635025c-6.7026825 -10.903458 -7.364212 -10.784012 -17.259468 -18.95781c-4.945503 -4.085129 5.38842 13.83078 11.662384 15.259506c10.256638 2.335678 14.686798 4.0560303 20.524078 -4.624481c8.948349 -13.306915 -5.364006 -44.104538 -21.458359 -43.004242c-12.174614 0.83232117 -15.563522 5.1291656 -17.257324 17.10971c-1.8469315 13.063705 9.805046 42.62854 20.05587 34.217316c7.771103 -6.3765106 -2.7116928 -25.264297 -12.592377 -27.280594c-8.479912 -1.7304535 -12.404182 -0.19416809 -15.393059 7.8607635c-4.8546333 13.083115 -0.6731529 42.761063 13.060585 39.76584c11.879471 -2.5908356 6.8902206 -28.77742 -2.7985458 -36.067535c-10.276714 -7.732498 -12.966091 -9.642273 -25.189034 -5.548523c-9.293804 3.1127167 -8.884834 7.3949585 -9.329906 17.109726c-0.20439148 4.461319 4.8477974 5.985794 8.397778 3.2362823c12.23402 -9.475449 5.46072 -35.467575 -6.0653 -45.778503c-9.600021 -8.587982 -15.837336 -11.578842 -25.655102 -3.2362823c-9.740839 8.277176 -8.13931 15.239609 -0.4660654 25.432495c10.234476 13.595154 42.894913 -0.6239624 48.511658 -16.64769c5.551838 -15.838593 -7.878002 -45.4451 -24.72297 -43.92829c-6.7639294 0.60905457 -1.541439 8.705322 3.7328224 12.947258c13.475937 10.838318 42.795296 4.144409 50.841988 -11.097046c8.452812 -16.010696 -8.763069 -42.10965 -26.12117 -47.628723c-4.14962 -1.3193893 -5.6410027 5.5132523 -2.3324738 8.324913c5.939087 5.0471725 7.756668 4.4566116 15.393059 2.7742615c20.465126 -4.5086136 21.065964 -4.337982 39.181755 -14.797482c4.4615936 -2.575985 6.4920654 -5.714138 3.2667542 -9.710979c-3.976616 -4.927868 -8.856155 -6.9559517 -12.594521 -1.8480873c-7.249939 9.905876 -1.1575394 38.45075 10.728111 35.141354c15.859787 -4.4159393 31.021378 -24.73425 27.521515 -40.692005c-0.674057 -3.0733414 -5.031006 -4.8214035 -6.0653076 -1.8480873c-5.449875 15.6667595 -4.5864563 38.573875 8.39563 49.014793c3.5102386 2.82312 16.004593 -3.7074585 12.1284485 -6.01268c-10.293091 -6.121521 -21.340881 16.770157 -21.456207 28.668793c-0.10032654 10.352135 0.8551636 13.537514 10.262039 18.03376c7.5744476 3.6203918 11.571945 1.6226501 15.859131 -5.548523c4.999466 -8.362602 5.357559 -11.962006 -0.9321289 -19.41983c-8.238556 -9.768616 -28.21988 -12.578659 -38.249626 -4.6244736c-3.7399673 2.966011 10.542793 6.529709 13.992714 3.2362823c5.9132996 -5.645073 -2.2503204 -20.41893 -10.262039 -22.194092c-13.2967 -2.946167 -17.179207 -6.0703964 -27.053299 3.2362823c-8.634933 8.138733 -10.881149 16.428253 -1.4003448 23.582283c21.260658 16.042877 81.04181 -17.729393 68.56967 -41.154026c-1.9629974 -3.6868172 -7.171295 -3.5256042 -8.397766 0.46202087c-5.530258 17.980434 -9.20697 19.604961 -3.264618 37.455723c3.2364655 9.722298 8.738388 11.63517 18.65767 8.784805c12.657288 -3.6371384 16.751266 -24.450363 13.060593 -36.99157c-0.9736023 -3.308342 -10.170914 1.2811279 -9.327774 4.624481c1.1984711 4.752281 12.657913 -1.1904373 13.526657 -6.0126724c1.4963684 -8.306171 4.2982483 -11.987389 -2.7985382 -16.645573c-18.91211 -12.413513 -47.081116 -2.1093674 -67.6354 7.398739c-4.1031113 1.8980408 10.66851 0.11060715 13.060585 -3.7004318c4.287903 -6.831459 -7.2951355 -23.198174 -14.46093 -19.41983c-7.9530106 4.1934204 -8.065796 7.846592 -6.5292206 16.645569c1.539154 8.813728 23.465523 7.2832794 27.053307 -0.92404556c4.9417877 -11.30471 -13.34787 -28.536663 -25.655106 -26.820698c-6.075409 0.8470764 -8.7975235 19.308292 -2.7985458 18.033764c8.621094 -1.8316193 10.051605 -2.8175201 13.994865 -10.635025c4.5333557 -8.9873905 -1.0688019 -25.160563 -10.728111 -28.206764c-6.139656 -1.9362316 -10.008583 12.65687 -6.5313644 18.033764c2.6971664 4.170681 16.30075 6.151493 14.926994 1.388195c-2.6939545 -9.340889 -23.291382 -6.6841316 -29.385773 0.92404366c-5.029114 6.278288 -6.1866837 29.715292 -0.46821594 24.046438c6.8178406 -6.758686 8.538139 -23.440128 0.46821594 -28.670918c-8.265823 -5.357765 -24.035156 6.419199 -24.72297 16.185677c-0.50232697 7.1327057 16.509872 7.9781 21.456207 2.7742615c8.043747 -8.462486 12.242577 -11.796156 6.9974365 -22.19622c-4.857239 -9.630933 -11.033173 -9.851027 -20.99015 -5.548524c-12.103493 5.230035 -12.626488 8.471799 -15.393059 21.270046c-2.6081161 12.065224 0.5625 12.7617035 5.597084 24.04644c1.0821457 2.4255638 5.7621613 -2.0842628 6.5313644 -4.624481" fill-rule="evenodd"></path><path stroke="#6fa8dc" stroke-width="1.0" stroke-linejoin="round" stroke-linecap="butt" d="m71.23865 44.23929c-7.138298 -1.8880424 -14.783295 -5.1217575 -21.92228 -3.2362823c-7.1940613 1.9000168 -12.286579 12.202938 -10.728107 19.419827c1.359581 6.2958794 17.54935 9.946934 19.123734 3.7004356c0.5236473 -2.07761 -3.4501686 -3.0010872 -5.597084 -3.238411c-7.5783615 -0.8377228 -7.689007 14.26297 -6.529217 21.7342c0.59685135 3.8448563 2.7057037 8.835564 6.529217 9.710976c5.6076546 1.283905 17.415775 -6.431572 13.526646 -10.637154c-6.1803856 -6.6832733 -23.672955 -0.41082764 -26.121162 8.324913c-1.6982651 6.059784 14.605545 17.3377 15.393059 11.097046c1.410984 -11.181335 -15.780598 -26.41169 -26.121166 -21.732063c-13.316873 6.0265503 -29.619541 24.835838 -22.388344 37.45359c4.0530314 7.072151 13.999294 13.211166 21.922277 11.097046c5.3463383 -1.4265823 9.205507 -7.559532 10.262041 -12.947266c0.7470207 -3.8093948 2.0674248 -9.758446 -1.4003448 -11.559067c-7.3619194 -3.8226318 -21.815262 -0.604187 -23.78869 7.3987427c-2.4822187 10.066238 3.9656982 22.195389 12.128452 28.668793c8.866449 7.0314484 30.064234 11.46347 34.050728 0.92404175c1.8632355 -4.925995 2.352642 -12.001923 -1.4003448 -15.721527c-6.4954834 -6.4377136 -21.096298 -5.1205215 -27.519365 1.3881912c-14.440655 14.633217 -0.9756775 56.409813 19.5898 58.26162c9.89362 0.89086914 23.699318 -13.915741 19.125885 -22.658234c-2.5308304 -4.837906 -9.049114 -6.902664 -14.46093 -7.8607635c-2.7549553 -0.4877472 -4.0208015 -2.2923431 -5.597084 0c-10.2270775 14.872879 19.417923 44.806473 36.849274 39.76796c10.453316 -3.021515 9.603897 -29.644638 -0.93213654 -32.369232c-2.894394 -0.7484741 -9.030403 -1.5725098 -8.863838 1.3881989c0.7412338 13.175949 28.452393 18.115173 38.715683 9.710983c6.2004166 -5.0772705 4.8912125 -7.2902374 4.664955 -15.259506c-0.6055908 -21.32988 -39.353508 -49.30716 -54.574814 -34.219437c-15.577152 15.44046 23.014923 56.113907 43.84671 49.014786c13.767853 -4.6918488 20.429016 -27.327866 14.926994 -40.689865c-5.5003967 -13.3580475 -27.321877 -16.609238 -41.51423 -13.411423c-3.0665894 0.69096375 -4.406067 8.332085 -1.4003448 9.248962c10.119675 3.0869293 10.402199 2.7742615 20.990143 2.7742615c8.5855255 0 20.195602 -6.322975 20.99015 -14.797485c2.0000992 -21.332817 -68.20729 -21.162628 -64.83685 0c2.3522224 14.769348 35.59105 11.950821 45.247047 0.4641571c14.682533 -17.466164 10.382179 -56.7055 -9.795975 -67.51271c-17.584785 -9.418228 -44.467987 -0.42401123 -58.305485 13.873436c-7.284685 7.526825 0.61045074 25.438416 10.262043 29.592834c14.849133 6.3916397 34.69616 6.056053 48.509506 -2.3122406c15.79657 -9.569756 16.407738 -52.07528 -1.8642578 -55.025333c-6.0030136 -0.96920395 -9.282242 -4.4043674 -12.128456 0.92404175c-12.219826 22.876808 47.13536 39.383144 71.83428 30.98103c10.444031 -3.552868 21.82492 -17.579735 17.723389 -27.742615c-9.908936 -24.5527 -59.507797 -23.684956 -79.761696 -6.474697c-11.489868 9.763241 -13.573166 12.312222 -12.594513 27.282722c1.675415 25.62891 46.935684 39.06487 71.366066 30.516872c12.327118 -4.3131638 20.33992 -21.982132 17.72554 -34.679333c-4.8432465 -23.521982 -55.822968 7.91803 -66.235054 29.59283c-5.0297394 10.470406 -4.6579742 13.492912 1.8642654 23.12027c9.747475 14.388062 35.843292 10.633293 52.24234 4.6244736c9.728378 -3.564598 12.466949 -21.319077 6.9974213 -30.054848c-6.654022 -10.627632 -28.641068 -10.935196 -37.781403 -2.3122406c-7.6626205 7.228882 -6.5856705 9.959534 -5.1310196 20.346c1.9654694 14.033783 28.752357 33.407516 36.84928 21.73207c7.226303 -10.420074 -28.218918 -14.376762 -37.78356 -6.010544c-6.037781 5.2812576 -3.0031586 20.012497 4.1988907 23.58229c4.229851 2.0965729 12.451401 -1.7887726 12.594513 -6.474701c0.33998108 -11.131119 -28.76152 -12.831825 -33.584656 -2.7742615c-4.310562 8.988693 -4.496773 11.511826 0.9321289 19.883972c8.428162 12.997452 43.264343 11.847061 46.64525 -3.2362823c3.3513641 -14.951523 -37.12065 2.1808624 -43.38064 16.183548c-4.1515427 9.286407 -2.1456146 11.907928 4.1988907 19.883987c6.726654 8.456497 25.97583 3.7508698 32.18431 -5.086502c4.6017 -6.5502014 3.0462646 -20.095154 -4.1967316 -23.58229c-5.0532074 -2.432846 -7.686615 -5.274399 -11.196327 -0.9261627c-4.662956 5.777008 -3.6354141 8.335785 0 14.79747c5.7018356 10.134598 22.142586 12.622467 33.584663 10.173004c11.3207855 -2.4234924 12.969284 -1.4286804 20.990143 -9.710983c4.4147034 -4.5585785 2.1409302 -17.816376 -4.1967316 -18.495789c-8.751221 -0.9381256 -17.214676 12.733078 -15.393066 21.27005c1.6101532 7.545944 19.462341 5.7725677 23.322632 -0.92404175c11.947525 -20.725906 -39.469757 -70.45941 -51.776276 -49.940964c-9.445625 15.748535 42.404297 23.499832 54.574814 9.710983c7.378174 -8.359268 5.555252 -24.585236 -1.4003448 -33.293266c-1.5830078 -1.9818344 -6.712082 2.179802 -6.063156 4.624481c0.87590027 3.2996826 7.8366394 6.0414886 9.795975 3.2362823c3.3611298 -4.8121643 3.8060608 -6.030815 1.8664093 -11.559067c-3.9958801 -11.3888855 -3.4254456 -12.986252 -13.060577 -20.346008c-5.872177 -4.4854355 -21.074158 -3.602066 -21.924423 3.6983109c-0.5809326 4.987831 12.154022 9.0943985 14.460922 4.6244736c5.7449493 -11.131538 -16.21988 -44.534523 -19.125885 -32.367092c-2.5291443 10.589516 15.346237 21.962826 26.12117 19.881855c7.723343 -1.4916229 21.304459 -14.646149 14.4609375 -18.495789c-11.294586 -6.3534584 -31.873032 -0.58940125 -37.31534 11.0991745c-7.42865 15.954666 -5.7649384 18.371979 -0.46821594 35.141357c12.937958 40.961464 22.149094 4.509163 17.72554 11.097046c-6.486267 9.659798 -23.176392 11.246986 -27.053299 22.19622c-8.113998 22.915604 -8.476852 25.301682 -1.4003448 48.552765c2.9523315 9.700455 27.486313 2.9200287 29.853989 -6.936722c3.293457 -13.710922 -18.01619 -26.5952 -32.186478 -27.744736c-12.517532 -1.0154724 -15.449158 -2.4030151 -24.254753 6.4746857c-7.608223 7.6705475 -7.127594 11.217331 -3.2646103 21.27005c2.6613693 6.9257355 17.745651 12.908661 21.456223 6.474701c2.1121674 -3.6624146 2.1980896 -6.067215 -1.3982086 -8.322784c-11.824234 -7.4160767 -34.436546 -1.8261108 -40.582092 10.635025c-4.27404 8.666336 -3.1312408 29.366592 6.5292206 28.206757c5.7637177 -0.6919861 9.790909 -11.771484 6.0653 -16.185669c-7.245117 -8.584183 -21.07325 -17.790009 -31.25219 -12.947266c-4.1604385 1.9793854 8.719788 10.924545 11.66024 7.3987427c12.832642 -15.387238 16.086006 -15.405167 19.125885 -35.141357c2.1252518 -13.79808 -15.628944 -35.12085 -28.92186 -30.518997c-8.138664 2.817505 -11.597031 23.241135 -3.2646103 25.432495c8.609047 2.2641296 22.486366 -10.320892 19.125885 -18.49791c-3.2571945 -7.925682 -5.163994 -8.518097 -13.528801 -10.635025c-8.098747 -2.049591 -12.853912 16.886993 -7.929558 23.58229c4.799309 6.525284 9.406029 8.62912 15.859123 3.7004395c13.673828 -10.44368 14.939621 -41.324387 0.9342804 -51.327034c-12.05085 -8.6067505 -40.623535 -6.512146 -43.846706 7.860756c-0.9968567 4.4452286 3.8166542 4.0613556 8.39563 3.6983109c19.42326 -1.5399933 22.607891 4.1220627 38.249615 -7.396614c12.38134 -9.117699 11.278969 -13.390762 10.728111 -28.670914c-0.51597595 -14.312439 -31.23114 -14.434525 -42.914574 -6.0105476c-11.1726265 8.0556755 -13.957779 12.236797 -10.2598915 25.432507c2.8284035 10.093002 9.023602 7.98246 19.589802 7.8607635c10.224304 -0.117767334 30.984001 -16.574509 21.92228 -21.27005c-16.66829 -8.637054 -35.878857 20.452354 -41.046017 38.37977c-2.2534866 7.818451 -0.95238495 9.391968 4.196739 15.721527c2.383484 2.9298859 4.1080284 0.3731842 7.463497 -1.3881989c1.9814987 -1.0401459 -3.9736595 -5.231415 -5.597084 -3.6983032c-3.9529839 3.7330627 -6.308998 5.402359 -3.7306747 10.173004c2.6179848 4.8440247 5.451126 4.457901 10.728104 2.7742615c14.653374 -4.675247 39.955574 -19.658531 32.18432 -32.831253c-8.974716 -15.212654 -42.642918 -4.19812 -52.242332 10.635025c-8.497616 13.1306305 -8.2827835 20.904037 3.7306747 30.981033c19.704811 16.528564 59.1793 17.169662 77.43137 -0.92404175c9.917915 -9.831879 -10.717186 -34.54103 -24.720825 -33.755295c-15.056488 0.8448105 -18.49279 2.565445 -25.655098 15.721527c-6.4311523 11.813034 24.854607 18.794739 37.781403 14.79747c13.670883 -4.227356 14.361687 -5.6808624 22.856552 -17.10971c2.9317474 -3.944313 1.6708679 -9.506248 -3.2646027 -9.248962c-8.853828 0.46155548 -11.457649 1.9034805 -14.46093 10.173004c-6.1748657 17.002441 -16.017326 24.129608 -2.3324738 36.06752c15.510719 13.530716 44.565132 -11.2131195 54.574806 -29.130798c1.5861511 -2.839264 2.7444 -5.8384705 -0.46606445 -6.474701c-9.464615 -1.8756332 -7.037613 20.905884 -1.3981934 28.670914c7.802124 10.742935 47.30269 -12.402985 35.44893 -18.49791c-8.730438 -4.488983 -22.258286 13.5855255 -18.65767 22.658234c3.32135 8.36908 9.035965 9.346497 17.25946 5.548523c16.702744 -7.714035 29.302948 -31.321991 24.720825 -49.014786c-1.383194 -5.340851 -13.30455 -12.673668 -14.92485 -7.398735c-1.2584229 4.0968704 9.2332 10.290672 11.194183 6.4746933c5.536667 -10.774162 2.9676514 -28.632668 -6.9974365 -35.605507c-5.3067627 -3.7132797 -2.1720123 21.643028 3.7328186 18.959938c10.099274 -4.5889893 -13.401871 -29.82962 -22.856552 -24.04644c-6.672348 4.0813065 -6.293457 6.566559 -6.063156 14.3354645c0.19511414 6.581749 16.557083 -0.6900711 18.65767 -6.936722c3.3394775 -9.930794 4.3116913 -12.671814 -2.3324738 -20.808025c-7.5489044 -9.244133 -26.61612 -9.824974 -35.917145 -2.3122406c-5.472122 4.4200172 19.490509 4.063381 20.990143 -2.7742615c2.0491028 -9.342949 -24.406235 -9.373749 -28.919708 -0.92404175c-2.6683502 4.995426 14.198349 1.7958984 16.79126 -3.2384148c3.6058655 -7.0009995 3.3762665 -8.608898 0 -15.721523c-2.9729004 -6.2628784 -15.4809265 -8.949528 -20.521927 -4.160328c-2.0231934 1.9221344 4.463318 9.705524 4.662796 6.9345894c0.51867676 -7.204233 -7.956131 -20.689655 -13.992706 -16.645569c-14.280716 9.567081 -1.2494965 38.617935 11.660233 49.93884c17.814972 15.622437 21.203094 10.71759 42.91458 20.346c4.9150085 2.1796646 14.643112 0.1332779 10.262039 3.2362823c-5.5161133 3.9069138 -7.065445 -2.958702 -13.526657 -0.92404175c-14.017609 4.4142 -17.886688 1.3283539 -26.12117 13.4092865c-10.991119 16.125244 -15.820099 19.719177 -8.863831 37.917747c4.670517 12.218735 13.197449 10.279388 25.65509 6.010544c10.701431 -3.6670532 11.055222 -7.7838593 12.128464 -18.95781c0.9926758 -10.3353195 -17.010498 -28.260353 -23.788696 -20.346008c-8.350281 9.749931 -9.349396 12.732712 -5.599228 24.97049c3.7881012 12.361572 24.704926 17.629395 36.85141 12.94725c5.703781 -2.198639 -11.39473 -11.913696 -16.327332 -8.322784c-11.278229 8.2105255 -14.022079 8.597137 -16.79126 22.194092c-2.215683 10.879181 11.520706 32.953568 20.524078 26.356552c3.5583801 -2.607315 0.607666 -5.522873 -2.7985382 -8.322784c-10.174683 -8.363617 -32.35788 -11.390411 -39.649963 -0.46202087c-6.4963226 9.735794 -4.5562744 14.395813 3.2667542 23.12027c6.382782 7.1182404 10.240158 5.476654 19.123734 1.8502197c8.8688965 -3.620453 -1.0685577 -22.876831 -9.795975 -26.82071c-7.8628845 -3.5531921 -9.805038 -3.410263 -17.257324 0.926178c-4.7006226 2.73526 -4.0483704 13.988358 0.9321289 16.183548c3.552185 1.5656433 2.823883 -8.912674 0 -11.561203c-4.6072235 -4.321121 -19.143677 -2.568512 -18.65767 3.7004395c0.62423706 8.051834 1.5277252 8.4231415 6.5292206 14.797485c2.3307648 2.9705353 11.455536 -3.3566132 9.32991 -6.474701c-6.4897614 -9.519852 -28.087593 -13.722595 -34.5168 -4.1624603c-7.2464676 10.775391 -3.4217682 13.28157 -0.4682083 25.896652c1.3956375 5.961014 13.459961 -5.926773 13.994858 -12.023209c0.56604004 -6.4513245 -14.266449 -18.40187 -15.393059 -12.023224c-1.9339981 10.949951 -3.422989 16.147339 6.5292206 21.27005c18.70308 9.62706 22.111923 10.659317 41.982437 3.7004242c16.566742 -5.8018646 46.35898 -33.184006 31.252182 -42.078064c-7.8463287 -4.6194916 -17.001205 18.396027 -10.730255 24.968353c13.602875 14.256561 51.014206 -39.249527 33.58467 -48.552765c-8.41507 -4.4916534 -15.763947 18.306137 -10.728104 26.358673c6.271515 10.028442 27.1185 -2.1170044 33.584656 -12.023224c3.0619812 -4.6909637 -17.485703 -12.124725 -15.393051 -6.936722c2.0727997 5.1388397 13.491379 8.467636 16.327332 3.7004395c4.622406 -7.770157 -1.4160767 -20.979813 -9.32991 -25.432495c-4.796051 -2.6984863 -8.8815 10.560486 -6.063141 15.259491c2.6027985 4.3395996 6.6124115 6.716736 9.793823 2.7742615c7.744873 -9.597595 7.2958527 -11.295166 6.9974365 -23.582275c-0.16403198 -6.753769 -7.504608 -22.00203 -11.660248 -16.647705c-2.4344177 3.1366196 -2.6426392 4.2838593 -0.9342804 7.8607635c1.1159058 2.3364182 3.2402802 2.706459 5.131027 0.92617035c9.162155 -8.626862 0.51000977 -35.6055 -12.126312 -35.6055c-3.7444763 0 4.674118 7.8092804 8.39563 7.398735c4.649414 -0.5129013 -0.7778168 -9.816223 -3.7328186 -13.411415c-1.4859161 -1.8078232 -8.047287 -3.0098114 -6.995285 -0.92404175c2.0870667 4.1378937 10.734238 -2.521019 12.126312 -6.936714c2.0427704 -6.479805 -6.3755035 -14.24828 -13.060593 -15.721527c-4.0839844 -0.9000282 -6.3693085 5.3923874 -9.327759 8.324913c-12.148087 12.041664 -13.576523 10.545921 -25.655106 22.656113c-28.77092 28.84623 -30.42871 27.498291 -55.97515 59.187798c-18.25824 22.648727 -12.55616 26.719803 -31.25219 49.014786c-3.441948 4.1045227 1.869751 -6.077118 -0.9321289 -10.635025c-6.7026825 -10.903458 -7.364212 -10.784012 -17.259468 -18.95781c-4.945503 -4.085129 5.38842 13.83078 11.662384 15.259506c10.256638 2.335678 14.686798 4.0560303 20.524078 -4.624481c8.948349 -13.306915 -5.364006 -44.104538 -21.458359 -43.004242c-12.174614 0.83232117 -15.563522 5.1291656 -17.257324 17.10971c-1.8469315 13.063705 9.805046 42.62854 20.05587 34.217316c7.771103 -6.3765106 -2.7116928 -25.264297 -12.592377 -27.280594c-8.479912 -1.7304535 -12.404182 -0.19416809 -15.393059 7.8607635c-4.8546333 13.083115 -0.6731529 42.761063 13.060585 39.76584c11.879471 -2.5908356 6.8902206 -28.77742 -2.7985458 -36.067535c-10.276714 -7.732498 -12.966091 -9.642273 -25.189034 -5.548523c-9.293804 3.1127167 -8.884834 7.3949585 -9.329906 17.109726c-0.20439148 4.461319 4.8477974 5.985794 8.397778 3.2362823c12.23402 -9.475449 5.46072 -35.467575 -6.0653 -45.778503c-9.600021 -8.587982 -15.837336 -11.578842 -25.655102 -3.2362823c-9.740839 8.277176 -8.13931 15.239609 -0.4660654 25.432495c10.234476 13.595154 42.894913 -0.6239624 48.511658 -16.64769c5.551838 -15.838593 -7.878002 -45.4451 -24.72297 -43.92829c-6.7639294 0.60905457 -1.541439 8.705322 3.7328224 12.947258c13.475937 10.838318 42.795296 4.144409 50.841988 -11.097046c8.452812 -16.010696 -8.763069 -42.10965 -26.12117 -47.628723c-4.14962 -1.3193893 -5.6410027 5.5132523 -2.3324738 8.324913c5.939087 5.0471725 7.756668 4.4566116 15.393059 2.7742615c20.465126 -4.5086136 21.065964 -4.337982 39.181755 -14.797482c4.4615936 -2.575985 6.4920654 -5.714138 3.2667542 -9.710979c-3.976616 -4.927868 -8.856155 -6.9559517 -12.594521 -1.8480873c-7.249939 9.905876 -1.1575394 38.45075 10.728111 35.141354c15.859787 -4.4159393 31.021378 -24.73425 27.521515 -40.692005c-0.674057 -3.0733414 -5.031006 -4.8214035 -6.0653076 -1.8480873c-5.449875 15.6667595 -4.5864563 38.573875 8.39563 49.014793c3.5102386 2.82312 16.004593 -3.7074585 12.1284485 -6.01268c-10.293091 -6.121521 -21.340881 16.770157 -21.456207 28.668793c-0.10032654 10.352135 0.8551636 13.537514 10.262039 18.03376c7.5744476 3.6203918 11.571945 1.6226501 15.859131 -5.548523c4.999466 -8.362602 5.357559 -11.962006 -0.9321289 -19.41983c-8.238556 -9.768616 -28.21988 -12.578659 -38.249626 -4.6244736c-3.7399673 2.966011 10.542793 6.529709 13.992714 3.2362823c5.9132996 -5.645073 -2.2503204 -20.41893 -10.262039 -22.194092c-13.2967 -2.946167 -17.179207 -6.0703964 -27.053299 3.2362823c-8.634933 8.138733 -10.881149 16.428253 -1.4003448 23.582283c21.260658 16.042877 81.04181 -17.729393 68.56967 -41.154026c-1.9629974 -3.6868172 -7.171295 -3.5256042 -8.397766 0.46202087c-5.530258 17.980434 -9.20697 19.604961 -3.264618 37.455723c3.2364655 9.722298 8.738388 11.63517 18.65767 8.784805c12.657288 -3.6371384 16.751266 -24.450363 13.060593 -36.99157c-0.9736023 -3.308342 -10.170914 1.2811279 -9.327774 4.624481c1.1984711 4.752281 12.657913 -1.1904373 13.526657 -6.0126724c1.4963684 -8.306171 4.2982483 -11.987389 -2.7985382 -16.645573c-18.91211 -12.413513 -47.081116 -2.1093674 -67.6354 7.398739c-4.1031113 1.8980408 10.66851 0.11060715 13.060585 -3.7004318c4.287903 -6.831459 -7.2951355 -23.198174 -14.46093 -19.41983c-7.9530106 4.1934204 -8.065796 7.846592 -6.5292206 16.645569c1.539154 8.813728 23.465523 7.2832794 27.053307 -0.92404556c4.9417877 -11.30471 -13.34787 -28.536663 -25.655106 -26.820698c-6.075409 0.8470764 -8.7975235 19.308292 -2.7985458 18.033764c8.621094 -1.8316193 10.051605 -2.8175201 13.994865 -10.635025c4.5333557 -8.9873905 -1.0688019 -25.160563 -10.728111 -28.206764c-6.139656 -1.9362316 -10.008583 12.65687 -6.5313644 18.033764c2.6971664 4.170681 16.30075 6.151493 14.926994 1.388195c-2.6939545 -9.340889 -23.291382 -6.6841316 -29.385773 0.92404366c-5.029114 6.278288 -6.1866837 29.715292 -0.46821594 24.046438c6.8178406 -6.758686 8.538139 -23.440128 0.46821594 -28.670918c-8.265823 -5.357765 -24.035156 6.419199 -24.72297 16.185677c-0.50232697 7.1327057 16.509872 7.9781 21.456207 2.7742615c8.043747 -8.462486 12.242577 -11.796156 6.9974365 -22.19622c-4.857239 -9.630933 -11.033173 -9.851027 -20.99015 -5.548524c-12.103493 5.230035 -12.626488 8.471799 -15.393059 21.270046c-2.6081161 12.065224 0.5625 12.7617035 5.597084 24.04644c1.0821457 2.4255638 5.7621613 -2.0842628 6.5313644 -4.624481" fill-rule="evenodd"></path><path fill="#cfe2f3" d="m53.116627 185.08319l0 0c-2.4100494 1.555481 -5.5438232 0.9875641 -6.999481 -1.2684784l0 0c-0.69903183 -1.0833893 -0.9096794 -2.4191437 -0.5856018 -3.7133942c0.3240776 -1.2942657 1.1563339 -2.4410095 2.3136826 -3.187973l0 0c2.4100494 -1.555481 5.5438232 -0.9875641 6.999481 1.2684784l0 0c1.455658 2.2560425 0.6819687 5.345886 -1.7280807 6.901367z" fill-rule="nonzero"></path><path stroke="#3d85c6" stroke-width="1.0" stroke-linejoin="round" stroke-linecap="butt" d="m53.116627 185.08319l0 0c-2.4100494 1.555481 -5.5438232 0.9875641 -6.999481 -1.2684784l0 0c-0.69903183 -1.0833893 -0.9096794 -2.4191437 -0.5856018 -3.7133942c0.3240776 -1.2942657 1.1563339 -2.4410095 2.3136826 -3.187973l0 0c2.4100494 -1.555481 5.5438232 -0.9875641 6.999481 1.2684784l0 0c1.455658 2.2560425 0.6819687 5.345886 -1.7280807 6.901367z" fill-rule="nonzero"></path><path fill="#000000" d="m43.138397 188.46251l4.3139954 -3.6337433l-1.6502342 5.1399384z" fill-rule="nonzero"></path><path stroke="#3d85c6" stroke-width="1.0" stroke-linejoin="round" stroke-linecap="butt" d="m43.138397 188.46251l4.3139954 -3.6337433l-1.6502342 5.1399384z" fill-rule="nonzero"></path><path fill="#cfe2f3" d="m40.83516 153.29205l0 0c0 -2.8682709 2.1765022 -5.193451 4.861351 -5.193451l0 0c1.2893143 0 2.5258179 0.5471649 3.4374962 1.5211182c0.9116821 0.9739685 1.4238586 2.2949371 1.4238586 3.6723328l0 0c0 2.8682556 -2.1765022 5.193451 -4.861355 5.193451l0 0c-2.6848488 0 -4.861351 -2.3251953 -4.861351 -5.193451z" fill-rule="nonzero"></path><path stroke="#3d85c6" stroke-width="1.0" stroke-linejoin="round" stroke-linecap="butt" d="m40.83516 153.29205l0 0c0 -2.8682709 2.1765022 -5.193451 4.861351 -5.193451l0 0c1.2893143 0 2.5258179 0.5471649 3.4374962 1.5211182c0.9116821 0.9739685 1.4238586 2.2949371 1.4238586 3.6723328l0 0c0 2.8682556 -2.1765022 5.193451 -4.861355 5.193451l0 0c-2.6848488 0 -4.861351 -2.3251953 -4.861351 -5.193451z" fill-rule="nonzero"></path><path fill="#000000" d="m43.406776 143.07605l0.7136879 5.5947113l-3.4236336 -4.173111z" fill-rule="nonzero"></path><path stroke="#3d85c6" stroke-width="1.0" stroke-linejoin="round" stroke-linecap="butt" d="m43.406776 143.07605l0.7136879 5.5947113l-3.4236336 -4.173111z" fill-rule="nonzero"></path><path fill="#cfe2f3" d="m100.827286 51.906223l0 0c0 -2.8682632 2.1764984 -5.193451 4.861351 -5.193451l0 0c1.2893143 0 2.5258179 0.5471649 3.4375 1.5211258c0.9116821 0.9739609 1.4238586 2.2949371 1.4238586 3.6723251l0 0c0 2.8682632 -2.176506 5.193447 -4.8613586 5.193447l0 0c-2.6848526 0 -4.861351 -2.3251839 -4.861351 -5.193447z" fill-rule="nonzero"></path><path stroke="#3d85c6" stroke-width="1.0" stroke-linejoin="round" stroke-linecap="butt" d="m100.827286 51.906223l0 0c0 -2.8682632 2.1764984 -5.193451 4.861351 -5.193451l0 0c1.2893143 0 2.5258179 0.5471649 3.4375 1.5211258c0.9116821 0.9739609 1.4238586 2.2949371 1.4238586 3.6723251l0 0c0 2.8682632 -2.176506 5.193447 -4.8613586 5.193447l0 0c-2.6848526 0 -4.861351 -2.3251839 -4.861351 -5.193447z" fill-rule="nonzero"></path><path fill="#000000" d="m103.3989 41.690224l0.7136917 5.5947075l-3.4236374 -4.1730995z" fill-rule="nonzero"></path><path stroke="#3d85c6" stroke-width="1.0" stroke-linejoin="round" stroke-linecap="butt" d="m103.3989 41.690224l0.7136917 5.5947075l-3.4236374 -4.1730995z" fill-rule="nonzero"></path><path fill="#cfe2f3" d="m152.9139 206.95346l0 0c0 -2.8682556 2.1764984 -5.1934357 4.8613586 -5.1934357l0 0c1.2893066 0 2.5258179 0.5471649 3.4375 1.5211182c0.9116821 0.9739685 1.4238586 2.2949371 1.4238586 3.6723175l0 0c0 2.8682709 -2.1765137 5.193451 -4.8613586 5.193451l0 0c-2.6848602 0 -4.8613586 -2.32518 -4.8613586 -5.193451z" fill-rule="nonzero"></path><path stroke="#3d85c6" stroke-width="1.0" stroke-linejoin="round" stroke-linecap="butt" d="m152.9139 206.95346l0 0c0 -2.8682556 2.1764984 -5.1934357 4.8613586 -5.1934357l0 0c1.2893066 0 2.5258179 0.5471649 3.4375 1.5211182c0.9116821 0.9739685 1.4238586 2.2949371 1.4238586 3.6723175l0 0c0 2.8682709 -2.1765137 5.193451 -4.8613586 5.193451l0 0c-2.6848602 0 -4.8613586 -2.32518 -4.8613586 -5.193451z" fill-rule="nonzero"></path><path fill="#000000" d="m155.48552 196.73747l0.7136841 5.5947113l-3.4236298 -4.173111z" fill-rule="nonzero"></path><path stroke="#3d85c6" stroke-width="1.0" stroke-linejoin="round" stroke-linecap="butt" d="m155.48552 196.73747l0.7136841 5.5947113l-3.4236298 -4.173111z" fill-rule="nonzero"></path><path fill="#cfe2f3" d="m232.83516 153.29205l0 0c0 -2.8682709 2.1764984 -5.193451 4.8613586 -5.193451l0 0c1.2893066 0 2.5258026 0.5471649 3.4374847 1.5211182c0.9116821 0.9739685 1.4238586 2.2949371 1.4238586 3.6723328l0 0c0 2.8682556 -2.1764984 5.193451 -4.8613434 5.193451l0 0c-2.6848602 0 -4.8613586 -2.3251953 -4.8613586 -5.193451z" fill-rule="nonzero"></path><path stroke="#3d85c6" stroke-width="1.0" stroke-linejoin="round" stroke-linecap="butt" d="m232.83516 153.29205l0 0c0 -2.8682709 2.1764984 -5.193451 4.8613586 -5.193451l0 0c1.2893066 0 2.5258026 0.5471649 3.4374847 1.5211182c0.9116821 0.9739685 1.4238586 2.2949371 1.4238586 3.6723328l0 0c0 2.8682556 -2.1764984 5.193451 -4.8613434 5.193451l0 0c-2.6848602 0 -4.8613586 -2.3251953 -4.8613586 -5.193451z" fill-rule="nonzero"></path><path fill="#000000" d="m235.40678 143.07605l0.7136841 5.5947113l-3.423645 -4.173111z" fill-rule="nonzero"></path><path stroke="#3d85c6" stroke-width="1.0" stroke-linejoin="round" stroke-linecap="butt" d="m235.40678 143.07605l0.7136841 5.5947113l-3.423645 -4.173111z" fill-rule="nonzero"></path><path fill="#cfe2f3" d="m223.12508 73.862076l0 0c0 -2.8682632 2.1765137 -5.193451 4.8613586 -5.193451l0 0c1.2893066 0 2.5258179 0.5471649 3.4375 1.5211258c0.9116821 0.9739609 1.4238586 2.2949371 1.4238586 3.6723251l0 0c0 2.8682632 -2.1764984 5.1934433 -4.8613586 5.1934433l0 0c-2.684845 0 -4.8613586 -2.32518 -4.8613586 -5.1934433z" fill-rule="nonzero"></path><path stroke="#3d85c6" stroke-width="1.0" stroke-linejoin="round" stroke-linecap="butt" d="m223.12508 73.862076l0 0c0 -2.8682632 2.1765137 -5.193451 4.8613586 -5.193451l0 0c1.2893066 0 2.5258179 0.5471649 3.4375 1.5211258c0.9116821 0.9739609 1.4238586 2.2949371 1.4238586 3.6723251l0 0c0 2.8682632 -2.1764984 5.1934433 -4.8613586 5.1934433l0 0c-2.684845 0 -4.8613586 -2.32518 -4.8613586 -5.1934433z" fill-rule="nonzero"></path><path fill="#000000" d="m225.6967 63.646076l0.7136841 5.5947075l-3.4236298 -4.1731033z" fill-rule="nonzero"></path><path stroke="#3d85c6" stroke-width="1.0" stroke-linejoin="round" stroke-linecap="butt" d="m225.6967 63.646076l0.7136841 5.5947075l-3.4236298 -4.1731033z" fill-rule="nonzero"></path><path fill="#cfe2f3" d="m195.68529 129.29205l0 0c0 -2.8682632 2.1764984 -5.193451 4.8613434 -5.193451l0 0c1.2893219 0 2.5258179 0.5471649 3.4375 1.5211258c0.9116821 0.9739609 1.4238586 2.2949295 1.4238586 3.6723251l0 0c0 2.8682556 -2.1764984 5.193451 -4.8613586 5.193451l0 0c-2.684845 0 -4.8613434 -2.3251953 -4.8613434 -5.193451z" fill-rule="nonzero"></path><path stroke="#3d85c6" stroke-width="1.0" stroke-linejoin="round" stroke-linecap="butt" d="m195.68529 129.29205l0 0c0 -2.8682632 2.1764984 -5.193451 4.8613434 -5.193451l0 0c1.2893219 0 2.5258179 0.5471649 3.4375 1.5211258c0.9116821 0.9739609 1.4238586 2.2949295 1.4238586 3.6723251l0 0c0 2.8682556 -2.1764984 5.193451 -4.8613586 5.193451l0 0c-2.684845 0 -4.8613434 -2.3251953 -4.8613434 -5.193451z" fill-rule="nonzero"></path><path fill="#000000" d="m198.2569 119.07605l0.71369934 5.5947113l-3.423645 -4.1731033z" fill-rule="nonzero"></path><path stroke="#3d85c6" stroke-width="1.0" stroke-linejoin="round" stroke-linecap="butt" d="m198.2569 119.07605l0.71369934 5.5947113l-3.423645 -4.1731033z" fill-rule="nonzero"></path><path fill="#cfe2f3" d="m88.83516 105.292046l0 0c0 -2.8682556 2.1764984 -5.1934433 4.861351 -5.1934433l0 0c1.2893143 0 2.5258179 0.5471649 3.4375 1.5211258c0.9116821 0.9739609 1.4238586 2.2949295 1.4238586 3.6723175l0 0c0 2.8682632 -2.176506 5.193451 -4.8613586 5.193451l0 0c-2.6848526 0 -4.861351 -2.3251877 -4.861351 -5.193451z" fill-rule="nonzero"></path><path stroke="#3d85c6" stroke-width="1.0" stroke-linejoin="round" stroke-linecap="butt" d="m88.83516 105.292046l0 0c0 -2.8682556 2.1764984 -5.1934433 4.861351 -5.1934433l0 0c1.2893143 0 2.5258179 0.5471649 3.4375 1.5211258c0.9116821 0.9739609 1.4238586 2.2949295 1.4238586 3.6723175l0 0c0 2.8682632 -2.176506 5.193451 -4.8613586 5.193451l0 0c-2.6848526 0 -4.861351 -2.3251877 -4.861351 -5.193451z" fill-rule="nonzero"></path><path fill="#000000" d="m91.40678 95.07605l0.7136917 5.5947113l-3.4236374 -4.1731033z" fill-rule="nonzero"></path><path stroke="#3d85c6" stroke-width="1.0" stroke-linejoin="round" stroke-linecap="butt" d="m91.40678 95.07605l0.7136917 5.5947113l-3.4236374 -4.1731033z" fill-rule="nonzero"></path><path fill="#cfe2f3" d="m56.265133 129.29205l0 0c0 -2.8682632 2.1765022 -5.193451 4.861355 -5.193451l0 0c1.2893105 0 2.525814 0.5471649 3.4374924 1.5211258c0.9116821 0.9739609 1.4238586 2.2949295 1.4238586 3.6723251l0 0c0 2.8682556 -2.1764984 5.193451 -4.861351 5.193451l0 0c-2.6848526 0 -4.861355 -2.3251953 -4.861355 -5.193451z" fill-rule="nonzero"></path><path stroke="#3d85c6" stroke-width="1.0" stroke-linejoin="round" stroke-linecap="butt" d="m56.265133 129.29205l0 0c0 -2.8682632 2.1765022 -5.193451 4.861355 -5.193451l0 0c1.2893105 0 2.525814 0.5471649 3.4374924 1.5211258c0.9116821 0.9739609 1.4238586 2.2949295 1.4238586 3.6723251l0 0c0 2.8682556 -2.1764984 5.193451 -4.861351 5.193451l0 0c-2.6848526 0 -4.861355 -2.3251953 -4.861355 -5.193451z" fill-rule="nonzero"></path><path fill="#000000" d="m58.836754 119.07605l0.7136879 5.5947113l-3.4236374 -4.1731033z" fill-rule="nonzero"></path><path stroke="#3d85c6" stroke-width="1.0" stroke-linejoin="round" stroke-linecap="butt" d="m58.836754 119.07605l0.7136879 5.5947113l-3.4236374 -4.1731033z" fill-rule="nonzero"></path><path fill="#cfe2f3" d="m168.83516 169.29205l0 0c0 -2.8682709 2.1764984 -5.193451 4.8613586 -5.193451l0 0c1.2893066 0 2.5258026 0.5471649 3.4374847 1.5211182c0.9116821 0.9739685 1.4238586 2.2949371 1.4238586 3.6723328l0 0c0 2.8682556 -2.1764984 5.193451 -4.8613434 5.193451l0 0c-2.6848602 0 -4.8613586 -2.3251953 -4.8613586 -5.193451z" fill-rule="nonzero"></path><path stroke="#3d85c6" stroke-width="1.0" stroke-linejoin="round" stroke-linecap="butt" d="m168.83516 169.29205l0 0c0 -2.8682709 2.1764984 -5.193451 4.8613586 -5.193451l0 0c1.2893066 0 2.5258026 0.5471649 3.4374847 1.5211182c0.9116821 0.9739685 1.4238586 2.2949371 1.4238586 3.6723328l0 0c0 2.8682556 -2.1764984 5.193451 -4.8613434 5.193451l0 0c-2.6848602 0 -4.8613586 -2.3251953 -4.8613586 -5.193451z" fill-rule="nonzero"></path><path fill="#000000" d="m171.40678 159.07605l0.7136841 5.5947113l-3.423645 -4.173111z" fill-rule="nonzero"></path><path stroke="#3d85c6" stroke-width="1.0" stroke-linejoin="round" stroke-linecap="butt" d="m171.40678 159.07605l0.7136841 5.5947113l-3.423645 -4.173111z" fill-rule="nonzero"></path><path fill="#cfe2f3" d="m219.11525 119.58198l0 0c0 -2.8682632 2.1765137 -5.193451 4.8613586 -5.193451l0 0c1.2893066 0 2.5258179 0.5471649 3.4375 1.5211258c0.9116821 0.9739609 1.4238586 2.2949371 1.4238586 3.6723251l0 0c0 2.8682632 -2.1764984 5.1934433 -4.8613586 5.1934433l0 0c-2.684845 0 -4.8613586 -2.32518 -4.8613586 -5.1934433z" fill-rule="nonzero"></path><path stroke="#3d85c6" stroke-width="1.0" stroke-linejoin="round" stroke-linecap="butt" d="m219.11525 119.58198l0 0c0 -2.8682632 2.1765137 -5.193451 4.8613586 -5.193451l0 0c1.2893066 0 2.5258179 0.5471649 3.4375 1.5211258c0.9116821 0.9739609 1.4238586 2.2949371 1.4238586 3.6723251l0 0c0 2.8682632 -2.1764984 5.1934433 -4.8613586 5.1934433l0 0c-2.684845 0 -4.8613586 -2.32518 -4.8613586 -5.1934433z" fill-rule="nonzero"></path><path fill="#000000" d="m221.68687 109.365974l0.7136841 5.5947113l-3.4236298 -4.1731033z" fill-rule="nonzero"></path><path stroke="#3d85c6" stroke-width="1.0" stroke-linejoin="round" stroke-linecap="butt" d="m221.68687 109.365974l0.7136841 5.5947113l-3.4236298 -4.1731033z" fill-rule="nonzero"></path><path fill="#cfe2f3" d="m174.55505 41.29205l0 0c0 -2.8682632 2.1765137 -5.193451 4.8613586 -5.193451l0 0c1.2893066 0 2.5258179 0.54716873 3.4375 1.5211296c0.9116821 0.97395706 1.4238586 2.2949333 1.4238586 3.6723213l0 0c0 2.8682632 -2.1764984 5.193447 -4.8613586 5.193447l0 0c-2.684845 0 -4.8613586 -2.3251839 -4.8613586 -5.193447z" fill-rule="nonzero"></path><path stroke="#3d85c6" stroke-width="1.0" stroke-linejoin="round" stroke-linecap="butt" d="m174.55505 41.29205l0 0c0 -2.8682632 2.1765137 -5.193451 4.8613586 -5.193451l0 0c1.2893066 0 2.5258179 0.54716873 3.4375 1.5211296c0.9116821 0.97395706 1.4238586 2.2949333 1.4238586 3.6723213l0 0c0 2.8682632 -2.1764984 5.193447 -4.8613586 5.193447l0 0c-2.684845 0 -4.8613586 -2.3251839 -4.8613586 -5.193447z" fill-rule="nonzero"></path><path fill="#000000" d="m177.12668 31.07605l0.7136841 5.5947075l-3.4236298 -4.1730995z" fill-rule="nonzero"></path><path stroke="#3d85c6" stroke-width="1.0" stroke-linejoin="round" stroke-linecap="butt" d="m177.12668 31.07605l0.7136841 5.5947075l-3.4236298 -4.1730995z" fill-rule="nonzero"></path><path fill="#cfe2f3" d="m153.9752 85.85225l0 0c0 -2.8682632 2.1764984 -5.193451 4.8613586 -5.193451l0 0c1.2893066 0 2.5258179 0.5471649 3.4375 1.5211258c0.9116821 0.9739609 1.4238586 2.2949371 1.4238586 3.6723251l0 0c0 2.8682632 -2.1765137 5.1934433 -4.8613586 5.1934433l0 0c-2.6848602 0 -4.8613586 -2.32518 -4.8613586 -5.1934433z" fill-rule="nonzero"></path><path stroke="#3d85c6" stroke-width="1.0" stroke-linejoin="round" stroke-linecap="butt" d="m153.9752 85.85225l0 0c0 -2.8682632 2.1764984 -5.193451 4.8613586 -5.193451l0 0c1.2893066 0 2.5258179 0.5471649 3.4375 1.5211258c0.9116821 0.9739609 1.4238586 2.2949371 1.4238586 3.6723251l0 0c0 2.8682632 -2.1765137 5.1934433 -4.8613586 5.1934433l0 0c-2.6848602 0 -4.8613586 -2.32518 -4.8613586 -5.1934433z" fill-rule="nonzero"></path><path fill="#000000" d="m156.54683 75.636246l0.7136841 5.5947113l-3.4236298 -4.1731033z" fill-rule="nonzero"></path><path stroke="#3d85c6" stroke-width="1.0" stroke-linejoin="round" stroke-linecap="butt" d="m156.54683 75.636246l0.7136841 5.5947113l-3.4236298 -4.1731033z" fill-rule="nonzero"></path><path fill="#cfe2f3" d="m138.56488 49.29205l0 0c0 -2.8682632 2.1765137 -5.193451 4.8613586 -5.193451l0 0c1.2893066 0 2.5258179 0.54716873 3.4375 1.5211296c0.9116821 0.97395706 1.4238586 2.2949333 1.4238586 3.6723213l0 0c0 2.8682632 -2.1764984 5.193447 -4.8613586 5.193447l0 0c-2.684845 0 -4.8613586 -2.3251839 -4.8613586 -5.193447z" fill-rule="nonzero"></path><path stroke="#3d85c6" stroke-width="1.0" stroke-linejoin="round" stroke-linecap="butt" d="m138.56488 49.29205l0 0c0 -2.8682632 2.1765137 -5.193451 4.8613586 -5.193451l0 0c1.2893066 0 2.5258179 0.54716873 3.4375 1.5211296c0.9116821 0.97395706 1.4238586 2.2949333 1.4238586 3.6723213l0 0c0 2.8682632 -2.1764984 5.193447 -4.8613586 5.193447l0 0c-2.684845 0 -4.8613586 -2.3251839 -4.8613586 -5.193447z" fill-rule="nonzero"></path><path fill="#000000" d="m141.1365 39.07605l0.7136841 5.5947075l-3.4236298 -4.1730995z" fill-rule="nonzero"></path><path stroke="#3d85c6" stroke-width="1.0" stroke-linejoin="round" stroke-linecap="butt" d="m141.1365 39.07605l0.7136841 5.5947075l-3.4236298 -4.1730995z" fill-rule="nonzero"></path><path fill="#cfe2f3" d="m119.125084 203.57214l0 0c0 -2.8682556 2.1764984 -5.193451 4.861351 -5.193451l0 0c1.2893143 0 2.5258179 0.5471649 3.4375 1.5211334c0.9116821 0.97395325 1.4238586 2.2949371 1.4238586 3.6723175l0 0c0 2.8682709 -2.176506 5.193451 -4.8613586 5.193451l0 0c-2.6848526 0 -4.861351 -2.32518 -4.861351 -5.193451z" fill-rule="nonzero"></path><path stroke="#3d85c6" stroke-width="1.0" stroke-linejoin="round" stroke-linecap="butt" d="m119.125084 203.57214l0 0c0 -2.8682556 2.1764984 -5.193451 4.861351 -5.193451l0 0c1.2893143 0 2.5258179 0.5471649 3.4375 1.5211334c0.9116821 0.97395325 1.4238586 2.2949371 1.4238586 3.6723175l0 0c0 2.8682709 -2.176506 5.193451 -4.8613586 5.193451l0 0c-2.6848526 0 -4.861351 -2.32518 -4.861351 -5.193451z" fill-rule="nonzero"></path><path fill="#000000" d="m121.6967 193.35616l0.7136917 5.594696l-3.4236374 -4.1730957z" fill-rule="nonzero"></path><path stroke="#3d85c6" stroke-width="1.0" stroke-linejoin="round" stroke-linecap="butt" d="m121.6967 193.35616l0.7136917 5.594696l-3.4236374 -4.1730957z" fill-rule="nonzero"></path><path fill="#cfe2f3" d="m48.83516 97.292046l0 0c0 -2.8682556 2.1765022 -5.1934433 4.861351 -5.1934433l0 0c1.2893143 0 2.5258179 0.5471649 3.4374962 1.5211258c0.9116821 0.9739609 1.4238586 2.2949295 1.4238586 3.6723175l0 0c0 2.8682632 -2.1765022 5.193451 -4.861355 5.193451l0 0c-2.6848488 0 -4.861351 -2.3251877 -4.861351 -5.193451z" fill-rule="nonzero"></path><path stroke="#3d85c6" stroke-width="1.0" stroke-linejoin="round" stroke-linecap="butt" d="m48.83516 97.292046l0 0c0 -2.8682556 2.1765022 -5.1934433 4.861351 -5.1934433l0 0c1.2893143 0 2.5258179 0.5471649 3.4374962 1.5211258c0.9116821 0.9739609 1.4238586 2.2949295 1.4238586 3.6723175l0 0c0 2.8682632 -2.1765022 5.193451 -4.861355 5.193451l0 0c-2.6848488 0 -4.861351 -2.3251877 -4.861351 -5.193451z" fill-rule="nonzero"></path><path fill="#000000" d="m51.406776 87.07605l0.7136879 5.5947113l-3.4236336 -4.1731033z" fill-rule="nonzero"></path><path stroke="#3d85c6" stroke-width="1.0" stroke-linejoin="round" stroke-linecap="butt" d="m51.406776 87.07605l0.7136879 5.5947113l-3.4236336 -4.1731033z" fill-rule="nonzero"></path><path fill="#cfe2f3" d="m207.12196 180.84834l0 0c2.3643494 -1.6240387 5.5134277 -1.1464844 7.033676 1.0666351l0 0c0.7300415 1.0627747 0.9791565 2.3918304 0.6925354 3.6947937c-0.28663635 1.3029633 -1.0855103 2.4730988 -2.2209167 3.2529907l0 0c-2.3643494 1.6240387 -5.5134277 1.1464844 -7.033676 -1.0666351l0 0c-1.5202484 -2.2131195 -0.835968 -5.3237457 1.5283813 -6.9477844z" fill-rule="nonzero"></path><path stroke="#3d85c6" stroke-width="1.0" stroke-linejoin="round" stroke-linecap="butt" d="m207.12196 180.84834l0 0c2.3643494 -1.6240387 5.5134277 -1.1464844 7.033676 1.0666351l0 0c0.7300415 1.0627747 0.9791565 2.3918304 0.6925354 3.6947937c-0.28663635 1.3029633 -1.0855103 2.4730988 -2.2209167 3.2529907l0 0c-2.3643494 1.6240387 -5.5134277 1.1464844 -7.033676 -1.0666351l0 0c-1.5202484 -2.2131195 -0.835968 -5.3237457 1.5283813 -6.9477844z" fill-rule="nonzero"></path><path fill="#000000" d="m216.99928 177.18373l-4.2076874 3.756073l1.5013733 -5.184952z" fill-rule="nonzero"></path><path stroke="#3d85c6" stroke-width="1.0" stroke-linejoin="round" stroke-linecap="butt" d="m216.99928 177.18373l-4.2076874 3.756073l1.5013733 -5.184952z" fill-rule="nonzero"></path><path fill="#cfe2f3" d="m91.68217 172.27832l0 0c2.3643417 -1.6240387 5.5134277 -1.1464844 7.0336685 1.0666351l0 0c0.73004913 1.0627747 0.9791641 2.3918304 0.6925354 3.6947937c-0.28662872 1.3029633 -1.0855179 2.4730988 -2.2209167 3.2529907l0 0c-2.3643417 1.6240387 -5.5134277 1.1464844 -7.033676 -1.0666351l0 0c-1.5202408 -2.2131195 -0.8359604 -5.323761 1.528389 -6.9477844z" fill-rule="nonzero"></path><path stroke="#3d85c6" stroke-width="1.0" stroke-linejoin="round" stroke-linecap="butt" d="m91.68217 172.27832l0 0c2.3643417 -1.6240387 5.5134277 -1.1464844 7.0336685 1.0666351l0 0c0.73004913 1.0627747 0.9791641 2.3918304 0.6925354 3.6947937c-0.28662872 1.3029633 -1.0855179 2.4730988 -2.2209167 3.2529907l0 0c-2.3643417 1.6240387 -5.5134277 1.1464844 -7.033676 -1.0666351l0 0c-1.5202408 -2.2131195 -0.8359604 -5.323761 1.528389 -6.9477844z" fill-rule="nonzero"></path><path fill="#000000" d="m101.55948 168.61371l-4.2076797 3.756073l1.5013733 -5.184952z" fill-rule="nonzero"></path><path stroke="#3d85c6" stroke-width="1.0" stroke-linejoin="round" stroke-linecap="butt" d="m101.55948 168.61371l-4.2076797 3.756073l1.5013733 -5.184952z" fill-rule="nonzero"></path><path fill="#cfe2f3" d="m124.82221 142.55841l0 0c2.3643494 -1.6240387 5.5134354 -1.1464844 7.0336685 1.0666351l0 0c0.73005676 1.0627899 0.97917175 2.3918457 0.6925354 3.694809c-0.2866211 1.3029633 -1.0855103 2.4730988 -2.2209167 3.2529907l0 0c-2.3643417 1.6240234 -5.5134277 1.1464844 -7.0336685 -1.0666351l0 0c-1.5202408 -2.2131348 -0.8359604 -5.323761 1.5283813 -6.9477997z" fill-rule="nonzero"></path><path stroke="#3d85c6" stroke-width="1.0" stroke-linejoin="round" stroke-linecap="butt" d="m124.82221 142.55841l0 0c2.3643494 -1.6240387 5.5134354 -1.1464844 7.0336685 1.0666351l0 0c0.73005676 1.0627899 0.97917175 2.3918457 0.6925354 3.694809c-0.2866211 1.3029633 -1.0855103 2.4730988 -2.2209167 3.2529907l0 0c-2.3643417 1.6240234 -5.5134277 1.1464844 -7.0336685 -1.0666351l0 0c-1.5202408 -2.2131348 -0.8359604 -5.323761 1.5283813 -6.9477997z" fill-rule="nonzero"></path><path fill="#000000" d="m134.69952 138.89381l-4.207672 3.7560577l1.5013733 -5.1849365z" fill-rule="nonzero"></path><path stroke="#3d85c6" stroke-width="1.0" stroke-linejoin="round" stroke-linecap="butt" d="m134.69952 138.89381l-4.207672 3.7560577l1.5013733 -5.1849365z" fill-rule="nonzero"></path><path fill="#cfe2f3" d="m183.69199 86.57807l0 0c2.3643494 -1.6240387 5.513443 -1.146492 7.033676 1.0666351l0 0c0.73005676 1.0627747 0.9791565 2.391838 0.6925354 3.6948013c-0.28663635 1.3029633 -1.0855103 2.4730988 -2.2209167 3.252983l0 0c-2.3643494 1.6240387 -5.5134277 1.146492 -7.033676 -1.0666351l0 0c-1.5202332 -2.2131195 -0.83595276 -5.3237534 1.5283813 -6.9477844z" fill-rule="nonzero"></path><path stroke="#3d85c6" stroke-width="1.0" stroke-linejoin="round" stroke-linecap="butt" d="m183.69199 86.57807l0 0c2.3643494 -1.6240387 5.513443 -1.146492 7.033676 1.0666351l0 0c0.73005676 1.0627747 0.9791565 2.391838 0.6925354 3.6948013c-0.28663635 1.3029633 -1.0855103 2.4730988 -2.2209167 3.252983l0 0c-2.3643494 1.6240387 -5.5134277 1.146492 -7.033676 -1.0666351l0 0c-1.5202332 -2.2131195 -0.83595276 -5.3237534 1.5283813 -6.9477844z" fill-rule="nonzero"></path><path fill="#000000" d="m193.5693 82.91347l-4.2076874 3.7560654l1.5013885 -5.184952z" fill-rule="nonzero"></path><path stroke="#3d85c6" stroke-width="1.0" stroke-linejoin="round" stroke-linecap="butt" d="m193.5693 82.91347l-4.2076874 3.7560654l1.5013885 -5.184952z" fill-rule="nonzero"></path><path fill="#cfe2f3" d="m111.69199 122.56824l0 0c2.3643417 -1.6240311 5.5134277 -1.1464844 7.0336685 1.0666428l0 0c0.73004913 1.0627747 0.9791641 2.391838 0.6925354 3.6948013c-0.28662872 1.3029633 -1.0855179 2.4730988 -2.2209167 3.2529907l0 0c-2.3643417 1.6240234 -5.5134277 1.1464844 -7.0336685 -1.0666351l0 0c-1.5202484 -2.2131271 -0.835968 -5.323761 1.5283813 -6.9477997z" fill-rule="nonzero"></path><path stroke="#3d85c6" stroke-width="1.0" stroke-linejoin="round" stroke-linecap="butt" d="m111.69199 122.56824l0 0c2.3643417 -1.6240311 5.5134277 -1.1464844 7.0336685 1.0666428l0 0c0.73004913 1.0627747 0.9791641 2.391838 0.6925354 3.6948013c-0.28662872 1.3029633 -1.0855179 2.4730988 -2.2209167 3.2529907l0 0c-2.3643417 1.6240234 -5.5134277 1.1464844 -7.0336685 -1.0666351l0 0c-1.5202484 -2.2131271 -0.835968 -5.323761 1.5283813 -6.9477997z" fill-rule="nonzero"></path><path fill="#000000" d="m121.569305 118.90364l-4.2076797 3.7560654l1.5013733 -5.184952z" fill-rule="nonzero"></path><path stroke="#3d85c6" stroke-width="1.0" stroke-linejoin="round" stroke-linecap="butt" d="m121.569305 118.90364l-4.2076797 3.7560654l1.5013733 -5.184952z" fill-rule="nonzero"></path><path fill="#cfe2f3" d="m124.25219 73.998215l0 0c2.3643494 -1.6240311 5.5134354 -1.1464844 7.0336685 1.0666351l0 0c0.73005676 1.0627823 0.9791565 2.391838 0.6925354 3.6948013c-0.2866211 1.3029633 -1.0855103 2.4730988 -2.2209167 3.2529907l0 0c-2.3643417 1.6240387 -5.5134277 1.1464844 -7.0336685 -1.0666351l0 0c-1.5202484 -2.2131271 -0.835968 -5.3237534 1.5283813 -6.947792z" fill-rule="nonzero"></path><path stroke="#3d85c6" stroke-width="1.0" stroke-linejoin="round" stroke-linecap="butt" d="m124.25219 73.998215l0 0c2.3643494 -1.6240311 5.5134354 -1.1464844 7.0336685 1.0666351l0 0c0.73005676 1.0627823 0.9791565 2.391838 0.6925354 3.6948013c-0.2866211 1.3029633 -1.0855103 2.4730988 -2.2209167 3.2529907l0 0c-2.3643417 1.6240387 -5.5134277 1.1464844 -7.0336685 -1.0666351l0 0c-1.5202484 -2.2131271 -0.835968 -5.3237534 1.5283813 -6.947792z" fill-rule="nonzero"></path><path fill="#000000" d="m134.1295 70.33361l-4.2076874 3.7560654l1.5013885 -5.184944z" fill-rule="nonzero"></path><path stroke="#3d85c6" stroke-width="1.0" stroke-linejoin="round" stroke-linecap="butt" d="m134.1295 70.33361l-4.2076874 3.7560654l1.5013885 -5.184944z" fill-rule="nonzero"></path><path fill="#cfe2f3" d="m200.2027 159.35799l0 0c2.3643494 -1.6240387 5.5134277 -1.1464844 7.033676 1.0666351l0 0c0.73005676 1.0627899 0.9791565 2.3918457 0.6925354 3.694809c-0.28663635 1.3029633 -1.0855103 2.4730988 -2.2209167 3.2529907l0 0c-2.3643494 1.6240234 -5.5134277 1.1464844 -7.033676 -1.0666351l0 0c-1.5202484 -2.2131348 -0.835968 -5.323761 1.5283813 -6.9477997z" fill-rule="nonzero"></path><path stroke="#3d85c6" stroke-width="1.0" stroke-linejoin="round" stroke-linecap="butt" d="m200.2027 159.35799l0 0c2.3643494 -1.6240387 5.5134277 -1.1464844 7.033676 1.0666351l0 0c0.73005676 1.0627899 0.9791565 2.3918457 0.6925354 3.694809c-0.28663635 1.3029633 -1.0855103 2.4730988 -2.2209167 3.2529907l0 0c-2.3643494 1.6240234 -5.5134277 1.1464844 -7.033676 -1.0666351l0 0c-1.5202484 -2.2131348 -0.835968 -5.323761 1.5283813 -6.9477997z" fill-rule="nonzero"></path><path fill="#000000" d="m210.08002 155.69339l-4.2076874 3.7560577l1.5013885 -5.1849365z" fill-rule="nonzero"></path><path stroke="#3d85c6" stroke-width="1.0" stroke-linejoin="round" stroke-linecap="butt" d="m210.08002 155.69339l-4.2076874 3.7560577l1.5013885 -5.1849365z" fill-rule="nonzero"></path><path fill="#cfe2f3" d="m29.738258 81.48299l0 0c-2.4100494 1.555481 -5.5438232 0.9875641 -6.999481 -1.268486l0 0c-0.69903183 -1.0833893 -0.9096775 -2.419136 -0.5855999 -3.7133942c0.3240776 -1.2942581 1.1563339 -2.4410095 2.3136806 -3.1879807l0 0c2.4100494 -1.555481 5.5438232 -0.9875641 6.999481 1.268486l0 0c1.455658 2.2560425 0.6819687 5.345894 -1.7280807 6.901375z" fill-rule="nonzero"></path><path stroke="#3d85c6" stroke-width="1.0" stroke-linejoin="round" stroke-linecap="butt" d="m29.738258 81.48299l0 0c-2.4100494 1.555481 -5.5438232 0.9875641 -6.999481 -1.268486l0 0c-0.69903183 -1.0833893 -0.9096775 -2.419136 -0.5855999 -3.7133942c0.3240776 -1.2942581 1.1563339 -2.4410095 2.3136806 -3.1879807l0 0c2.4100494 -1.555481 5.5438232 -0.9875641 6.999481 1.268486l0 0c1.455658 2.2560425 0.6819687 5.345894 -1.7280807 6.901375z" fill-rule="nonzero"></path><path fill="#000000" d="m19.760029 84.862305l4.3139954 -3.6337585l-1.6502323 5.1399384z" fill-rule="nonzero"></path><path stroke="#3d85c6" stroke-width="1.0" stroke-linejoin="round" stroke-linecap="butt" d="m19.760029 84.862305l4.3139954 -3.6337585l-1.6502323 5.1399384z" fill-rule="nonzero"></path><path fill="#cfe2f3" d="m81.17806 74.05301l0 0c-2.4100494 1.555481 -5.5438232 0.9875641 -6.999481 -1.2684784l0 0c-0.69903564 -1.0833969 -0.9096756 -2.4191437 -0.5856018 -3.7134018c0.32408142 -1.2942581 1.1563339 -2.4410095 2.3136826 -3.1879807l0 0c2.4100494 -1.555481 5.5438232 -0.98755646 6.999481 1.268486l0 0c1.455658 2.2560425 0.6819687 5.345894 -1.7280807 6.901375z" fill-rule="nonzero"></path><path stroke="#3d85c6" stroke-width="1.0" stroke-linejoin="round" stroke-linecap="butt" d="m81.17806 74.05301l0 0c-2.4100494 1.555481 -5.5438232 0.9875641 -6.999481 -1.2684784l0 0c-0.69903564 -1.0833969 -0.9096756 -2.4191437 -0.5856018 -3.7134018c0.32408142 -1.2942581 1.1563339 -2.4410095 2.3136826 -3.1879807l0 0c2.4100494 -1.555481 5.5438232 -0.98755646 6.999481 1.268486l0 0c1.455658 2.2560425 0.6819687 5.345894 -1.7280807 6.901375z" fill-rule="nonzero"></path><path fill="#000000" d="m71.19983 77.43233l4.3139954 -3.6337585l-1.6502304 5.1399384z" fill-rule="nonzero"></path><path stroke="#3d85c6" stroke-width="1.0" stroke-linejoin="round" stroke-linecap="butt" d="m71.19983 77.43233l4.3139954 -3.6337585l-1.6502304 5.1399384z" fill-rule="nonzero"></path><path fill="#cfe2f3" d="m197.56812 57.232986l0 0c-2.4100494 1.555481 -5.5438232 0.9875603 -6.999481 -1.2684822l0 0c-0.69903564 -1.0833931 -0.9096832 -2.4191399 -0.5856018 -3.7134018c0.32408142 -1.2942581 1.1563263 -2.4410057 2.313675 -3.1879768l0 0c2.4100494 -1.555481 5.5438232 -0.9875603 6.999481 1.2684822l0 0c1.455658 2.2560463 0.6819763 5.3458977 -1.7280731 6.9013786z" fill-rule="nonzero"></path><path stroke="#3d85c6" stroke-width="1.0" stroke-linejoin="round" stroke-linecap="butt" d="m197.56812 57.232986l0 0c-2.4100494 1.555481 -5.5438232 0.9875603 -6.999481 -1.2684822l0 0c-0.69903564 -1.0833931 -0.9096832 -2.4191399 -0.5856018 -3.7134018c0.32408142 -1.2942581 1.1563263 -2.4410057 2.313675 -3.1879768l0 0c2.4100494 -1.555481 5.5438232 -0.9875603 6.999481 1.2684822l0 0c1.455658 2.2560463 0.6819763 5.3458977 -1.7280731 6.9013786z" fill-rule="nonzero"></path><path fill="#000000" d="m187.58987 60.612305l4.3139954 -3.6337585l-1.6502228 5.1399384z" fill-rule="nonzero"></path><path stroke="#3d85c6" stroke-width="1.0" stroke-linejoin="round" stroke-linecap="butt" d="m187.58987 60.612305l4.3139954 -3.6337585l-1.6502228 5.1399384z" fill-rule="nonzero"></path><path fill="#cfe2f3" d="m40.31811 121.48299l0 0c-2.4100494 1.555481 -5.5438232 0.9875641 -6.999481 -1.268486l0 0c-0.69903183 -1.0833893 -0.9096794 -2.419136 -0.5856018 -3.7133942c0.3240776 -1.2942581 1.1563339 -2.4410095 2.3136826 -3.1879807l0 0c2.4100494 -1.555481 5.5438232 -0.9875641 6.999481 1.268486l0 0c1.455658 2.2560425 0.6819687 5.345894 -1.7280807 6.901375z" fill-rule="nonzero"></path><path stroke="#3d85c6" stroke-width="1.0" stroke-linejoin="round" stroke-linecap="butt" d="m40.31811 121.48299l0 0c-2.4100494 1.555481 -5.5438232 0.9875641 -6.999481 -1.268486l0 0c-0.69903183 -1.0833893 -0.9096794 -2.419136 -0.5856018 -3.7133942c0.3240776 -1.2942581 1.1563339 -2.4410095 2.3136826 -3.1879807l0 0c2.4100494 -1.555481 5.5438232 -0.9875641 6.999481 1.268486l0 0c1.455658 2.2560425 0.6819687 5.345894 -1.7280807 6.901375z" fill-rule="nonzero"></path><path fill="#000000" d="m30.33988 124.862305l4.3139973 -3.6337585l-1.6502342 5.1399384z" fill-rule="nonzero"></path><path stroke="#3d85c6" stroke-width="1.0" stroke-linejoin="round" stroke-linecap="butt" d="m30.33988 124.862305l4.3139973 -3.6337585l-1.6502342 5.1399384z" fill-rule="nonzero"></path><path fill="#cfe2f3" d="m90.81811 35.232986l0 0c-2.4100494 1.555481 -5.5438232 0.9875603 -6.999481 -1.2684822l0 0c-0.699028 -1.0833931 -0.9096756 -2.4191418 -0.5855942 -3.7134c0.3240738 -1.29426 1.1563339 -2.4410095 2.313675 -3.1879768l0 0c2.4100494 -1.555481 5.5438232 -0.9875622 6.999481 1.2684822l0 0c1.455658 2.2560425 0.6819687 5.345896 -1.7280807 6.9013767z" fill-rule="nonzero"></path><path stroke="#6fa8dc" stroke-width="1.0" stroke-linejoin="round" stroke-linecap="butt" d="m90.81811 35.232986l0 0c-2.4100494 1.555481 -5.5438232 0.9875603 -6.999481 -1.2684822l0 0c-0.699028 -1.0833931 -0.9096756 -2.4191418 -0.5855942 -3.7134c0.3240738 -1.29426 1.1563339 -2.4410095 2.313675 -3.1879768l0 0c2.4100494 -1.555481 5.5438232 -0.9875622 6.999481 1.2684822l0 0c1.455658 2.2560425 0.6819687 5.345896 -1.7280807 6.9013767z" fill-rule="nonzero"></path><path fill="#000000" d="m80.83988 38.612305l4.3139954 -3.6337585l-1.6502304 5.1399384z" fill-rule="nonzero"></path><path stroke="#6fa8dc" stroke-width="1.0" stroke-linejoin="round" stroke-linecap="butt" d="m80.83988 38.612305l4.3139954 -3.6337585l-1.6502304 5.1399384z" fill-rule="nonzero"></path><path fill="#cfe2f3" d="m171.06812 135.23299l0 0c-2.4100494 1.555481 -5.5438232 0.9875641 -6.999481 -1.2684784l0 0c-0.69903564 -1.0833893 -0.9096832 -2.4191437 -0.5856018 -3.7134094c0.32408142 -1.2942505 1.1563263 -2.441002 2.313675 -3.187973l0 0c2.4100494 -1.555481 5.5438232 -0.9875641 6.999481 1.2684784l0 0c1.455658 2.2560425 0.6819763 5.3459015 -1.7280731 6.9013824z" fill-rule="nonzero"></path><path stroke="#3d85c6" stroke-width="1.0" stroke-linejoin="round" stroke-linecap="butt" d="m171.06812 135.23299l0 0c-2.4100494 1.555481 -5.5438232 0.9875641 -6.999481 -1.2684784l0 0c-0.69903564 -1.0833893 -0.9096832 -2.4191437 -0.5856018 -3.7134094c0.32408142 -1.2942505 1.1563263 -2.441002 2.313675 -3.187973l0 0c2.4100494 -1.555481 5.5438232 -0.9875641 6.999481 1.2684784l0 0c1.455658 2.2560425 0.6819763 5.3459015 -1.7280731 6.9013824z" fill-rule="nonzero"></path><path fill="#000000" d="m161.08987 138.6123l4.3139954 -3.6337585l-1.6502228 5.1399384z" fill-rule="nonzero"></path><path stroke="#3d85c6" stroke-width="1.0" stroke-linejoin="round" stroke-linecap="butt" d="m161.08987 138.6123l4.3139954 -3.6337585l-1.6502228 5.1399384z" fill-rule="nonzero"></path><path fill="#cfe2f3" d="m240.06812 170.73299l0 0c-2.4100494 1.555481 -5.5438232 0.9875641 -6.999481 -1.2684784l0 0c-0.69903564 -1.0833893 -0.9096832 -2.4191437 -0.5856018 -3.7134094c0.32408142 -1.2942505 1.1563263 -2.4410095 2.313675 -3.187973l0 0c2.4100494 -1.555481 5.5438232 -0.9875641 6.999481 1.2684784l0 0c1.455658 2.2560425 0.6819763 5.3459015 -1.7280731 6.9013824z" fill-rule="nonzero"></path><path stroke="#3d85c6" stroke-width="1.0" stroke-linejoin="round" stroke-linecap="butt" d="m240.06812 170.73299l0 0c-2.4100494 1.555481 -5.5438232 0.9875641 -6.999481 -1.2684784l0 0c-0.69903564 -1.0833893 -0.9096832 -2.4191437 -0.5856018 -3.7134094c0.32408142 -1.2942505 1.1563263 -2.4410095 2.313675 -3.187973l0 0c2.4100494 -1.555481 5.5438232 -0.9875641 6.999481 1.2684784l0 0c1.455658 2.2560425 0.6819763 5.3459015 -1.7280731 6.9013824z" fill-rule="nonzero"></path><path fill="#000000" d="m230.08987 174.1123l4.3139954 -3.6337585l-1.6502228 5.1399384z" fill-rule="nonzero"></path><path stroke="#3d85c6" stroke-width="1.0" stroke-linejoin="round" stroke-linecap="butt" d="m230.08987 174.1123l4.3139954 -3.6337585l-1.6502228 5.1399384z" fill-rule="nonzero"></path><path fill="#000000" d="m178.82986 99.10341l4.330719 -3.6220474l-1.6535492 5.1338577z" fill-rule="nonzero"></path><path stroke="#6fa8dc" stroke-width="1.0" stroke-linejoin="round" stroke-linecap="butt" d="m178.82986 99.10341l4.330719 -3.6220474l-1.6535492 5.1338577z" fill-rule="nonzero"></path><path fill="#000000" d="m117.579865 84.85341l4.3307114 -3.6220474l-1.6535416 5.1338577z" fill-rule="nonzero"></path><path stroke="#6fa8dc" stroke-width="1.0" stroke-linejoin="round" stroke-linecap="butt" d="m117.579865 84.85341l4.3307114 -3.6220474l-1.6535416 5.1338577z" fill-rule="nonzero"></path><path fill="#000000" d="m121.579865 212.60341l4.3307114 -3.6220398l-1.6535416 5.13385z" fill-rule="nonzero"></path><path stroke="#6fa8dc" stroke-width="1.0" stroke-linejoin="round" stroke-linecap="butt" d="m121.579865 212.60341l4.3307114 -3.6220398l-1.6535416 5.13385z" fill-rule="nonzero"></path><path fill="#000000" d="m57.57987 138.85341l4.3307076 -3.6220398l-1.6535416 5.13385z" fill-rule="nonzero"></path><path stroke="#6fa8dc" stroke-width="1.0" stroke-linejoin="round" stroke-linecap="butt" d="m57.57987 138.85341l4.3307076 -3.6220398l-1.6535416 5.13385z" fill-rule="nonzero"></path><path fill="#000000" d="m137.82986 58.10341l4.330719 -3.6220474l-1.6535492 5.1338577z" fill-rule="nonzero"></path><path stroke="#6fa8dc" stroke-width="1.0" stroke-linejoin="round" stroke-linecap="butt" d="m137.82986 58.10341l4.330719 -3.6220474l-1.6535492 5.1338577z" fill-rule="nonzero"></path><path fill="#000000" d="m69.71048 121.78284l-4.897644 2.803154l2.5354385 -4.755913z" fill-rule="nonzero"></path><path stroke="#6fa8dc" stroke-width="1.0" stroke-linejoin="round" stroke-linecap="butt" d="m69.71048 121.78284l-4.897644 2.803154l2.5354385 -4.755913z" fill-rule="nonzero"></path><path fill="#000000" d="m46.960476 111.53284l-4.8976364 2.803154l2.535431 -4.755913z" fill-rule="nonzero"></path><path stroke="#6fa8dc" stroke-width="1.0" stroke-linejoin="round" stroke-linecap="butt" d="m46.960476 111.53284l-4.8976364 2.803154l2.535431 -4.755913z" fill-rule="nonzero"></path><path fill="#000000" d="m99.093636 27.46751l-5.496063 1.2440948l3.8267746 -3.7952747z" fill-rule="nonzero"></path><path stroke="#6fa8dc" stroke-width="1.0" stroke-linejoin="round" stroke-linecap="butt" d="m99.093636 27.46751l-5.496063 1.2440948l3.8267746 -3.7952747z" fill-rule="nonzero"></path><path fill="#cfe2f3" d="m121.316536 30.230536l0 0c-2.4091797 1.5568333 -5.539665 0.9927826 -6.9921265 -1.2598438l0 0c-0.69750214 -1.081749 -0.9068451 -2.4161816 -0.58197784 -3.7097397c0.32486725 -1.2935581 1.1573334 -2.440279 2.3142624 -3.1878967l0 0c2.4091797 -1.5568352 5.5396576 -0.9927845 6.9921265 1.2598419l0 0c1.4524612 2.2526264 0.67689514 5.340803 -1.7322845 6.8976383z" fill-rule="nonzero"></path><path stroke="#3d85c6" stroke-width="1.0" stroke-linejoin="round" stroke-linecap="butt" d="m121.316536 30.230536l0 0c-2.4091797 1.5568333 -5.539665 0.9927826 -6.9921265 -1.2598438l0 0c-0.69750214 -1.081749 -0.9068451 -2.4161816 -0.58197784 -3.7097397c0.32486725 -1.2935581 1.1573334 -2.440279 2.3142624 -3.1878967l0 0c2.4091797 -1.5568352 5.5396576 -0.9927845 6.9921265 1.2598419l0 0c1.4524612 2.2526264 0.67689514 5.340803 -1.7322845 6.8976383z" fill-rule="nonzero"></path><path fill="#000000" d="m111.329865 33.60341l4.3307114 -3.6220474l-1.6535416 5.1338577z" fill-rule="nonzero"></path><path stroke="#3d85c6" stroke-width="1.0" stroke-linejoin="round" stroke-linecap="butt" d="m111.329865 33.60341l4.3307114 -3.6220474l-1.6535416 5.1338577z" fill-rule="nonzero"></path><path fill="#cfe2f3" d="m165.06653 56.480534l0 0c-2.4091797 1.5568352 -5.5396576 0.9927864 -6.9921265 -1.2598419l0 0c-0.6974945 -1.081749 -0.90682983 -2.4161835 -0.5819702 -3.7097397c0.32487488 -1.29356 1.1573334 -2.440281 2.3142548 -3.1878967l0 0c2.4091797 -1.5568352 5.539673 -0.9927826 6.9921265 1.2598419l0 0c1.4524689 2.2526245 0.67689514 5.340805 -1.7322845 6.8976364z" fill-rule="nonzero"></path><path stroke="#3d85c6" stroke-width="1.0" stroke-linejoin="round" stroke-linecap="butt" d="m165.06653 56.480534l0 0c-2.4091797 1.5568352 -5.5396576 0.9927864 -6.9921265 -1.2598419l0 0c-0.6974945 -1.081749 -0.90682983 -2.4161835 -0.5819702 -3.7097397c0.32487488 -1.29356 1.1573334 -2.440281 2.3142548 -3.1878967l0 0c2.4091797 -1.5568352 5.539673 -0.9927826 6.9921265 1.2598419l0 0c1.4524689 2.2526245 0.67689514 5.340805 -1.7322845 6.8976364z" fill-rule="nonzero"></path><path fill="#000000" d="m155.07986 59.85341l4.330719 -3.6220474l-1.6535492 5.1338577z" fill-rule="nonzero"></path><path stroke="#3d85c6" stroke-width="1.0" stroke-linejoin="round" stroke-linecap="butt" d="m155.07986 59.85341l4.330719 -3.6220474l-1.6535492 5.1338577z" fill-rule="nonzero"></path><path fill="#cfe2f3" d="m146.31653 111.881386l0 0c-2.4091797 1.5568314 -5.5396576 0.9927826 -6.9921265 -1.2598419l0 0c-0.6974945 -1.081749 -0.90682983 -2.4161835 -0.5819702 -3.7097473c0.32487488 -1.2935562 1.1573334 -2.440277 2.3142548 -3.1878967l0 0c2.4091797 -1.5568314 5.539673 -0.9927826 6.9921265 1.2598419l0 0c1.4524689 2.2526321 0.67689514 5.340805 -1.7322845 6.897644z" fill-rule="nonzero"></path><path stroke="#3d85c6" stroke-width="1.0" stroke-linejoin="round" stroke-linecap="butt" d="m146.31653 111.881386l0 0c-2.4091797 1.5568314 -5.5396576 0.9927826 -6.9921265 -1.2598419l0 0c-0.6974945 -1.081749 -0.90682983 -2.4161835 -0.5819702 -3.7097473c0.32487488 -1.2935562 1.1573334 -2.440277 2.3142548 -3.1878967l0 0c2.4091797 -1.5568314 5.539673 -0.9927826 6.9921265 1.2598419l0 0c1.4524689 2.2526321 0.67689514 5.340805 -1.7322845 6.897644z" fill-rule="nonzero"></path><path fill="#000000" d="m136.32986 115.25426l4.330719 -3.6220474l-1.6535492 5.1338577z" fill-rule="nonzero"></path><path stroke="#3d85c6" stroke-width="1.0" stroke-linejoin="round" stroke-linecap="butt" d="m136.32986 115.25426l4.330719 -3.6220474l-1.6535492 5.1338577z" fill-rule="nonzero"></path><path fill="#cfe2f3" d="m58.316536 66.6799l0 0c-2.4091797 1.5568314 -5.5396614 0.9927826 -6.9921265 -1.2598419l0 0c-0.6974983 -1.081749 -0.9068413 -2.4161873 -0.581974 -3.7097435c0.32486343 -1.29356 1.1573296 -2.440281 2.3142586 -3.1878967l0 0c2.4091759 -1.5568352 5.5396576 -0.9927826 6.9921227 1.2598419l0 0c1.452465 2.2526245 0.67689896 5.3408012 -1.7322807 6.89764z" fill-rule="nonzero"></path><path stroke="#3d85c6" stroke-width="1.0" stroke-linejoin="round" stroke-linecap="butt" d="m58.316536 66.6799l0 0c-2.4091797 1.5568314 -5.5396614 0.9927826 -6.9921265 -1.2598419l0 0c-0.6974983 -1.081749 -0.9068413 -2.4161873 -0.581974 -3.7097435c0.32486343 -1.29356 1.1573296 -2.440281 2.3142586 -3.1878967l0 0c2.4091759 -1.5568352 5.5396576 -0.9927826 6.9921227 1.2598419l0 0c1.452465 2.2526245 0.67689896 5.3408012 -1.7322807 6.89764z" fill-rule="nonzero"></path><path fill="#000000" d="m48.32987 70.05277l4.3307076 -3.6220474l-1.6535416 5.1338577z" fill-rule="nonzero"></path><path stroke="#3d85c6" stroke-width="1.0" stroke-linejoin="round" stroke-linecap="butt" d="m48.32987 70.05277l4.3307076 -3.6220474l-1.6535416 5.1338577z" fill-rule="nonzero"></path><path fill="#cfe2f3" d="m113.58209 109.6511l0 0c-2.4100494 1.555481 -5.5438232 0.9875641 -6.999481 -1.2684784l0 0c-0.69903564 -1.0833893 -0.9096832 -2.4191437 -0.5856018 -3.7134018c0.32408142 -1.2942581 1.1563339 -2.4410095 2.3136826 -3.1879807l0 0c2.4100494 -1.555481 5.5438232 -0.98755646 6.999481 1.268486l0 0c1.455658 2.2560425 0.6819687 5.345894 -1.7280807 6.901375z" fill-rule="nonzero"></path><path stroke="#3d85c6" stroke-width="1.0" stroke-linejoin="round" stroke-linecap="butt" d="m113.58209 109.6511l0 0c-2.4100494 1.555481 -5.5438232 0.9875641 -6.999481 -1.2684784l0 0c-0.69903564 -1.0833893 -0.9096832 -2.4191437 -0.5856018 -3.7134018c0.32408142 -1.2942581 1.1563339 -2.4410095 2.3136826 -3.1879807l0 0c2.4100494 -1.555481 5.5438232 -0.98755646 6.999481 1.268486l0 0c1.455658 2.2560425 0.6819687 5.345894 -1.7280807 6.901375z" fill-rule="nonzero"></path><path fill="#000000" d="m103.60386 113.03042l4.3139954 -3.6337585l-1.6502304 5.139946z" fill-rule="nonzero"></path><path stroke="#3d85c6" stroke-width="1.0" stroke-linejoin="round" stroke-linecap="butt" d="m103.60386 113.03042l4.3139954 -3.6337585l-1.6502304 5.139946z" fill-rule="nonzero"></path><path fill="#cfe2f3" d="m162.24901 106.398l0 0c2.3643494 -1.6240311 5.5134277 -1.1464844 7.033676 1.0666351l0 0c0.7300415 1.0627823 0.9791565 2.391838 0.6925354 3.6948013c-0.28663635 1.3029633 -1.0855255 2.4730988 -2.2209167 3.2529907l0 0c-2.3643494 1.6240387 -5.5134277 1.1464844 -7.033676 -1.0666351l0 0c-1.5202484 -2.2131271 -0.835968 -5.3237534 1.5283813 -6.947792z" fill-rule="nonzero"></path><path stroke="#3d85c6" stroke-width="1.0" stroke-linejoin="round" stroke-linecap="butt" d="m162.24901 106.398l0 0c2.3643494 -1.6240311 5.5134277 -1.1464844 7.033676 1.0666351l0 0c0.7300415 1.0627823 0.9791565 2.391838 0.6925354 3.6948013c-0.28663635 1.3029633 -1.0855255 2.4730988 -2.2209167 3.2529907l0 0c-2.3643494 1.6240387 -5.5134277 1.1464844 -7.033676 -1.0666351l0 0c-1.5202484 -2.2131271 -0.835968 -5.3237534 1.5283813 -6.947792z" fill-rule="nonzero"></path><path fill="#000000" d="m172.12631 102.7334l-4.207672 3.7560654l1.5013733 -5.184944z" fill-rule="nonzero"></path><path stroke="#3d85c6" stroke-width="1.0" stroke-linejoin="round" stroke-linecap="butt" d="m172.12631 102.7334l-4.207672 3.7560654l1.5013733 -5.184944z" fill-rule="nonzero"></path><path fill="#000000" d="m155.57669 117.2532l4.3307037 -3.6220474l-1.6535492 5.1338577z" fill-rule="nonzero"></path><path stroke="#6fa8dc" stroke-width="1.0" stroke-linejoin="round" stroke-linecap="butt" d="m155.57669 117.2532l4.3307037 -3.6220474l-1.6535492 5.1338577z" fill-rule="nonzero"></path><path fill="#cfe2f3" d="m180.24796 201.59843l0 0c2.364334 -1.6240387 5.5134277 -1.1464996 7.033661 1.0666351l0 0c0.73005676 1.0627747 0.9791565 2.3918304 0.6925354 3.6947937c-0.2866211 1.3029633 -1.0855103 2.4730988 -2.2209167 3.2529907l0 0c-2.3643494 1.6240387 -5.5134277 1.1464844 -7.033676 -1.0666351l0 0c-1.5202332 -2.2131195 -0.83595276 -5.323761 1.5283966 -6.9477844z" fill-rule="nonzero"></path><path stroke="#3d85c6" stroke-width="1.0" stroke-linejoin="round" stroke-linecap="butt" d="m180.24796 201.59843l0 0c2.364334 -1.6240387 5.5134277 -1.1464996 7.033661 1.0666351l0 0c0.73005676 1.0627747 0.9791565 2.3918304 0.6925354 3.6947937c-0.2866211 1.3029633 -1.0855103 2.4730988 -2.2209167 3.2529907l0 0c-2.3643494 1.6240387 -5.5134277 1.1464844 -7.033676 -1.0666351l0 0c-1.5202332 -2.2131195 -0.83595276 -5.323761 1.5283966 -6.9477844z" fill-rule="nonzero"></path><path fill="#000000" d="m190.12526 197.93382l-4.2076874 3.756073l1.5013885 -5.184952z" fill-rule="nonzero"></path><path stroke="#3d85c6" stroke-width="1.0" stroke-linejoin="round" stroke-linecap="butt" d="m190.12526 197.93382l-4.2076874 3.756073l1.5013885 -5.184952z" fill-rule="nonzero"></path><path fill="#000000" d="m171.66757 211.48772l5.259842 -2.0787354l-3.1811066 4.346466z" fill-rule="nonzero"></path><path stroke="#6fa8dc" stroke-width="1.0" stroke-linejoin="round" stroke-linecap="butt" d="m171.66757 211.48772l5.259842 -2.0787354l-3.1811066 4.346466z" fill-rule="nonzero"></path><path fill="#000000" fill-opacity="0.0" d="m131.92651 149.3202c11.848663 3.2417603 27.818405 -6.1860504 32.383194 -17.590546" fill-rule="evenodd"></path><path stroke="#6fa8dc" stroke-width="1.0" stroke-linejoin="round" stroke-linecap="butt" stroke-dasharray="1.0,3.0" d="m131.92651 149.3202c11.848663 3.2417603 27.818405 -6.1860504 32.383194 -17.590546" fill-rule="evenodd"></path><path fill="#000000" fill-opacity="0.0" d="m39.774277 122.13648c4.845722 6.7081375 -0.93624496 19.109123 5.598427 24.186348" fill-rule="evenodd"></path><path stroke="#6fa8dc" stroke-width="1.0" stroke-linejoin="round" stroke-linecap="butt" stroke-dasharray="1.0,3.0" d="m39.774277 122.13648c4.845722 6.7081375 -0.93624496 19.109123 5.598427 24.186348" fill-rule="evenodd"></path><path fill="#000000" fill-opacity="0.0" d="m42.17323 119.937004c4.5585938 2.072586 8.585545 6.396332 13.593174 6.396332" fill-rule="evenodd"></path><path stroke="#6fa8dc" stroke-width="1.0" stroke-linejoin="round" stroke-linecap="butt" stroke-dasharray="1.0,3.0" d="m42.17323 119.937004c4.5585938 2.072586 8.585545 6.396332 13.593174 6.396332" fill-rule="evenodd"></path><path fill="#000000" fill-opacity="0.0" d="m128.32808 82.55643c6.8137665 4.2567368 10.076401 13.040062 12.194229 20.790031" fill-rule="evenodd"></path><path stroke="#6fa8dc" stroke-width="1.0" stroke-linejoin="round" stroke-linecap="butt" stroke-dasharray="1.0,3.0" d="m128.32808 82.55643c6.8137665 4.2567368 10.076401 13.040062 12.194229 20.790031" fill-rule="evenodd"></path><path fill="#000000" fill-opacity="0.0" d="m163.50919 86.35433c6.06781 1.7283325 12.019287 4.7978973 18.2939 4.7978973" fill-rule="evenodd"></path><path stroke="#6fa8dc" stroke-width="1.0" stroke-linejoin="round" stroke-linecap="butt" stroke-dasharray="1.0,3.0" d="m163.50919 86.35433c6.06781 1.7283325 12.019287 4.7978973 18.2939 4.7978973" fill-rule="evenodd"></path><path fill="#000000" fill-opacity="0.0" d="m189.29659 94.54855c10.225113 6.9859543 18.357666 16.976784 29.183731 22.989502" fill-rule="evenodd"></path><path stroke="#6fa8dc" stroke-width="1.0" stroke-linejoin="round" stroke-linecap="butt" stroke-dasharray="1.0,3.0" d="m189.29659 94.54855c10.225113 6.9859543 18.357666 16.976784 29.183731 22.989502" fill-rule="evenodd"></path><path fill="#000000" fill-opacity="0.0" d="m191.49344 89.55118c8.477142 -7.9060593 19.649399 -14.239159 31.183731 -15.391075" fill-rule="evenodd"></path><path stroke="#6fa8dc" stroke-width="1.0" stroke-linejoin="round" stroke-linecap="butt" stroke-dasharray="1.0,3.0" d="m191.49344 89.55118c8.477142 -7.9060593 19.649399 -14.239159 31.183731 -15.391075" fill-rule="evenodd"></path><path fill="#000000" fill-opacity="0.0" d="m128.72704 205.49081c6.952896 3.1611633 15.297562 3.8949432 22.7874 2.3989563" fill-rule="evenodd"></path><path stroke="#6fa8dc" stroke-width="1.0" stroke-linejoin="round" stroke-linecap="butt" stroke-dasharray="1.0,3.0" d="m128.72704 205.49081c6.952896 3.1611633 15.297562 3.8949432 22.7874 2.3989563" fill-rule="evenodd"></path><path fill="#000000" fill-opacity="0.0" d="m220.47769 123.93438c-4.559906 1.2006454 -8.4422 4.357872 -12.992126 5.5958023" fill-rule="evenodd"></path><path stroke="#6fa8dc" stroke-width="1.0" stroke-linejoin="round" stroke-linecap="butt" stroke-dasharray="1.0,3.0" d="m220.47769 123.93438c-4.559906 1.2006454 -8.4422 4.357872 -12.992126 5.5958023" fill-rule="evenodd"></path><path fill="#000000" fill-opacity="0.0" d="m111.13648 50.571808c9.303749 -2.6044617 19.322838 0 28.984245 0" fill-rule="evenodd"></path><path stroke="#6fa8dc" stroke-width="1.0" stroke-linejoin="round" stroke-linecap="butt" stroke-dasharray="1.0,3.0" d="m111.13648 50.571808c9.303749 -2.6044617 19.322838 0 28.984245 0" fill-rule="evenodd"></path><path fill="#000000" fill-opacity="0.0" d="m169.50656 113.338585c9.331421 2.7475052 16.0336 11.717873 25.385834 14.3937" fill-rule="evenodd"></path><path stroke="#6fa8dc" stroke-width="1.0" stroke-linejoin="round" stroke-linecap="butt" stroke-dasharray="1.0,3.0" d="m169.50656 113.338585c9.331421 2.7475052 16.0336 11.717873 25.385834 14.3937" fill-rule="evenodd"></path><path fill="#000000" fill-opacity="0.0" d="m59.564304 65.56431c5.0113487 0 9.449024 3.8303146 14.349735 4.997368" fill-rule="evenodd"></path><path stroke="#6fa8dc" stroke-width="1.0" stroke-linejoin="round" stroke-linecap="butt" stroke-dasharray="1.0,3.0" d="m59.564304 65.56431c5.0113487 0 9.449024 3.8303146 14.349735 4.997368" fill-rule="evenodd"></path><path fill="#000000" fill-opacity="0.0" d="m27.982304 82.55643c-4.328579 9.377014 3.7352257 20.383713 6.994751 30.183731" fill-rule="evenodd"></path><path stroke="#6fa8dc" stroke-width="1.0" stroke-linejoin="round" stroke-linecap="butt" stroke-dasharray="1.0,3.0" d="m27.982304 82.55643c-4.328579 9.377014 3.7352257 20.383713 6.994751 30.183731" fill-rule="evenodd"></path><path fill="#000000" fill-opacity="0.0" d="m162.30971 46.774277c2.9220734 -2.6758919 7.2320557 -3.9973755 11.194229 -3.9973755" fill-rule="evenodd"></path><path stroke="#6fa8dc" stroke-width="1.0" stroke-linejoin="round" stroke-linecap="butt" stroke-dasharray="1.0,3.0" d="m162.30971 46.774277c2.9220734 -2.6758919 7.2320557 -3.9973755 11.194229 -3.9973755" fill-rule="evenodd"></path><path fill="#000000" fill-opacity="0.0" d="m129.92651 152.3202c13.788361 0 24.190628 16.391083 37.979004 16.391083" fill-rule="evenodd"></path><path stroke="#6fa8dc" stroke-width="1.0" stroke-linejoin="round" stroke-linecap="butt" stroke-dasharray="1.0,3.0" d="m129.92651 152.3202c13.788361 0 24.190628 16.391083 37.979004 16.391083" fill-rule="evenodd"></path><path fill="#000000" fill-opacity="0.0" d="m202.6868 159.11548c0.54441833 -7.8844147 -4.5386047 -19.802292 2.398941 -23.587921c6.002777 -3.2755432 17.191605 -4.3559113 17.191605 -11.1942215" fill-rule="evenodd"></path><path stroke="#6fa8dc" stroke-width="1.0" stroke-linejoin="round" stroke-linecap="butt" stroke-dasharray="1.0,3.0" d="m202.6868 159.11548c0.54441833 -7.8844147 -4.5386047 -19.802292 2.398941 -23.587921c6.002777 -3.2755432 17.191605 -4.3559113 17.191605 -11.1942215" fill-rule="evenodd"></path><path fill="#000000" fill-opacity="0.0" d="m232.67192 78.35958c5.3753357 10.750687 5.1186676 26.600464 -2.3989563 35.979004" fill-rule="evenodd"></path><path stroke="#6fa8dc" stroke-width="1.0" stroke-linejoin="round" stroke-linecap="butt" stroke-dasharray="1.0,3.0" d="m232.67192 78.35958c5.3753357 10.750687 5.1186676 26.600464 -2.3989563 35.979004" fill-rule="evenodd"></path><path fill="#000000" fill-opacity="0.0" d="m185.0971 40.779526c4.477783 0 6.638153 6.3308105 10.795288 7.994751" fill-rule="evenodd"></path><path stroke="#6fa8dc" stroke-width="1.0" stroke-linejoin="round" stroke-linecap="butt" stroke-dasharray="1.0,3.0" d="m185.0971 40.779526c4.477783 0 6.638153 6.3308105 10.795288 7.994751" fill-rule="evenodd"></path><path fill="#000000" fill-opacity="0.0" d="m30.380577 73.1601c6.8293343 -4.2010727 16.129025 -3.7844467 22.38845 -8.795273" fill-rule="evenodd"></path><path stroke="#6fa8dc" stroke-width="1.0" stroke-linejoin="round" stroke-linecap="butt" stroke-dasharray="1.0,3.0" d="m30.380577 73.1601c6.8293343 -4.2010727 16.129025 -3.7844467 22.38845 -8.795273" fill-rule="evenodd"></path><path fill="#000000" fill-opacity="0.0" d="m97.543304 180.30446c8.248405 4.949051 12.0644 16.5457 21.18898 19.59056" fill-rule="evenodd"></path><path stroke="#6fa8dc" stroke-width="1.0" stroke-linejoin="round" stroke-linecap="butt" stroke-dasharray="1.0,3.0" d="m97.543304 180.30446c8.248405 4.949051 12.0644 16.5457 21.18898 19.59056" fill-rule="evenodd"></path><path fill="#000000" fill-opacity="0.0" d="m173.9029 131.93027c7.849701 -0.6026001 15.793945 -2.3108063 23.587921 -1.1994781" fill-rule="evenodd"></path><path stroke="#6fa8dc" stroke-width="1.0" stroke-linejoin="round" stroke-linecap="butt" stroke-dasharray="1.0,3.0" d="m173.9029 131.93027c7.849701 -0.6026001 15.793945 -2.3108063 23.587921 -1.1994781" fill-rule="evenodd"></path><path fill="#000000" fill-opacity="0.0" d="m125.53018 83.95538c-3.5016785 5.6877136 -7.1138 11.389618 -9.595802 17.590546" fill-rule="evenodd"></path><path stroke="#6fa8dc" stroke-width="1.0" stroke-linejoin="round" stroke-linecap="butt" stroke-dasharray="1.0,3.0" d="m125.53018 83.95538c-3.5016785 5.6877136 -7.1138 11.389618 -9.595802 17.590546" fill-rule="evenodd"></path><path fill="#000000" fill-opacity="0.0" d="m94.74541 110.74016c6.320511 4.215515 12.621788 8.618217 17.989502 13.994751" fill-rule="evenodd"></path><path stroke="#6fa8dc" stroke-width="1.0" stroke-linejoin="round" stroke-linecap="butt" stroke-dasharray="1.0,3.0" d="m94.74541 110.74016c6.320511 4.215515 12.621788 8.618217 17.989502 13.994751" fill-rule="evenodd"></path><path fill="#000000" fill-opacity="0.0" d="m80.753494 74.761154c-3.2137146 8.839027 6.4998016 17.654182 9.994751 26.385826" fill-rule="evenodd"></path><path stroke="#6fa8dc" stroke-width="1.0" stroke-linejoin="round" stroke-linecap="butt" stroke-dasharray="1.0,3.0" d="m80.753494 74.761154c-3.2137146 8.839027 6.4998016 17.654182 9.994751 26.385826" fill-rule="evenodd"></path><path fill="#000000" fill-opacity="0.0" d="m109.11519 56.37008c-2.2601547 7.8656845 9.119301 14.603523 16.468277 18.262314" fill-rule="evenodd"></path><path stroke="#6fa8dc" stroke-width="1.0" stroke-linejoin="round" stroke-linecap="butt" stroke-dasharray="1.0,3.0" d="m109.11519 56.37008c-2.2601547 7.8656845 9.119301 14.603523 16.468277 18.262314" fill-rule="evenodd"></path><path fill="#000000" fill-opacity="0.0" d="m123.92913 25.585302c17.324974 0 36.850258 1.9681206 50.375328 12.795275" fill-rule="evenodd"></path><path stroke="#6fa8dc" stroke-width="1.0" stroke-linejoin="round" stroke-linecap="butt" stroke-dasharray="1.0,3.0" d="m123.92913 25.585302c17.324974 0 36.850258 1.9681206 50.375328 12.795275" fill-rule="evenodd"></path></g></svg>

